<?xml version="1.0" encoding="utf-8"?>
<!-- Generator: Adobe Illustrator 27.5.0, SVG Export Plug-In . SVG Version: 6.00 Build 0)  -->
<svg version="1.1" xmlns="http://www.w3.org/2000/svg" xmlns:xlink="http://www.w3.org/1999/xlink" x="0px" y="0px"
	 viewBox="0 0 500 500" style="enable-background:new 0 0 500 500;" xml:space="preserve">
<g id="Background_Complete">
	<g>
		<rect y="382.398" style="fill:#EBEBEB;" width="500" height="0.25"/>
		<rect x="416.779" y="398.494" style="fill:#EBEBEB;" width="33.122" height="0.25"/>
		<rect x="322.527" y="401.208" style="fill:#EBEBEB;" width="8.693" height="0.25"/>
		<rect x="368.111" y="389.208" style="fill:#EBEBEB;" width="47.667" height="0.25"/>
		<rect x="52.459" y="390.888" style="fill:#EBEBEB;" width="23.679" height="0.25"/>
		<rect x="85.041" y="390.888" style="fill:#EBEBEB;" width="25.847" height="0.25"/>
		<rect x="131.471" y="395.111" style="fill:#EBEBEB;" width="64.64" height="0.25"/>
		<path style="fill:#EBEBEB;" d="M237.014,337.8H43.915c-3.147,0-5.708-2.561-5.708-5.708V60.66c0-3.147,2.561-5.708,5.708-5.708
			h193.099c3.146,0,5.707,2.561,5.707,5.708v271.432C242.721,335.239,240.16,337.8,237.014,337.8z M43.915,55.203
			c-3.01,0-5.458,2.448-5.458,5.458v271.432c0,3.01,2.448,5.458,5.458,5.458h193.099c3.009,0,5.457-2.448,5.457-5.458V60.66
			c0-3.009-2.448-5.458-5.457-5.458H43.915z"/>
		<path style="fill:#EBEBEB;" d="M453.31,337.8H260.212c-3.147,0-5.707-2.561-5.707-5.708V60.66c0-3.147,2.561-5.708,5.707-5.708
			H453.31c3.148,0,5.708,2.561,5.708,5.708v271.432C459.019,335.239,456.458,337.8,453.31,337.8z M260.212,55.203
			c-3.009,0-5.457,2.448-5.457,5.458v271.432c0,3.01,2.448,5.458,5.457,5.458H453.31c3.01,0,5.458-2.448,5.458-5.458V60.66
			c0-3.009-2.448-5.458-5.458-5.458H260.212z"/>
	</g>
	<g>
		<g>
			<rect x="283.444" y="81" style="fill:#EBEBEB;" width="157.972" height="301.398"/>
			<rect x="295.194" y="90.829" style="fill:#F5F5F5;" width="134.472" height="291.569"/>
			<rect x="343.528" y="115.013" style="fill:#FFFFFF;" width="37.806" height="10.454"/>
			<path style="fill:#FFFFFF;" d="M398.371,218.816h20.511c1.769,0,3.203,1.434,3.203,3.203l0,0c0,1.769-1.434,3.203-3.203,3.203
				h-20.511c-1.769,0-3.203-1.434-3.203-3.203l0,0C395.168,220.25,396.602,218.816,398.371,218.816z"/>
		</g>
		<g>
			<rect x="70.38" y="113.074" style="fill:#EBEBEB;" width="105.056" height="84.669"/>
			
				<rect x="86.208" y="108.516" transform="matrix(-1.836970e-16 1 -1 -1.836970e-16 278.3119 32.5023)" style="fill:#FAFAFA;" width="73.393" height="93.783"/>
			
				<rect x="121.152" y="118.661" transform="matrix(-1.836970e-16 1 -1 -1.836970e-16 277.5198 31.7103)" style="fill:#E0E0E0;" width="3.506" height="71.908"/>
			
				<rect x="121.152" y="126.648" transform="matrix(-1.836970e-16 1 -1 -1.836970e-16 285.5067 39.697)" style="fill:#E0E0E0;" width="3.506" height="71.908"/>
			
				<rect x="121.152" y="134.635" transform="matrix(-1.836970e-16 1 -1 -1.836970e-16 293.4935 47.6839)" style="fill:#E0E0E0;" width="3.506" height="71.908"/>
			
				<rect x="121.152" y="160.65" transform="matrix(-1.836970e-16 1 -1 -1.836970e-16 301.4803 55.6707)" style="fill:#E0E0E0;" width="3.506" height="35.85"/>
			<path style="fill:#EBEBEB;" d="M86.947,118.709c0,6.04-4.891,10.932-10.932,10.932c-2.063,0-3.99-0.575-5.635-1.567v-15h15.011
				C86.383,114.719,86.947,116.646,86.947,118.709z"/>
			<path style="fill:#EBEBEB;" d="M175.437,113.074v15c-1.645,0.992-3.572,1.567-5.635,1.567c-6.04,0-10.943-4.891-10.943-10.932
				c0-2.063,0.575-3.99,1.566-5.635H175.437z"/>
			<path style="fill:#EBEBEB;" d="M86.947,192.108c0,2.063-0.563,3.99-1.555,5.635H70.38v-15.011
				c1.645-0.992,3.572-1.567,5.635-1.567C82.056,181.165,86.947,186.068,86.947,192.108z"/>
			<path style="fill:#EBEBEB;" d="M175.437,182.732v15.011h-15.011c-0.992-1.645-1.566-3.572-1.566-5.635
				c0-6.04,4.902-10.943,10.943-10.943C171.864,181.165,173.791,181.74,175.437,182.732z"/>
			
				<ellipse transform="matrix(0.1602 -0.9871 0.9871 0.1602 -31.5991 236.0266)" style="fill:#E0E0E0;" cx="122.909" cy="136.583" rx="9.313" ry="9.313"/>
		</g>
		<g>
			<g>
				<rect x="52.459" y="262.154" style="fill:#EBEBEB;" width="207.881" height="7.478"/>
				<rect x="191" y="269.633" style="fill:#F5F5F5;" width="67.537" height="112.766"/>
				<rect x="55.028" y="269.633" style="fill:#F5F5F5;" width="67.537" height="112.766"/>
				<rect x="55.028" y="269.633" style="fill:#EBEBEB;" width="2.306" height="112.766"/>
				<rect x="191" y="269.633" style="fill:#EBEBEB;" width="2.306" height="112.766"/>
			</g>
			<polygon style="fill:#F0F0F0;" points="90.5,244.124 78.083,244.124 79.079,262.154 89.504,262.154 			"/>
			<rect x="133.444" y="254.333" style="fill:#F0F0F0;" width="64.889" height="7.821"/>
			<rect x="168.417" y="255.25" style="fill:#FAFAFA;" width="29.917" height="5.988"/>
		</g>
	</g>
</g>
<g id="Background_Simple" style="display:none;">
	<g style="display:inline;">
		<path style="fill:#407BFF;" d="M253.754,180.641c-28.199-40.817-68.428-129.055-133.076-72.879
			c-64.174,55.765-16.049,154.592,24.787,187.957c41.282,33.729,174.234,64.24,192.758-20.873
			C350.968,216.284,284.902,225.726,253.754,180.641z"/>
		<path style="opacity:0.9;fill:#FFFFFF;" d="M253.754,180.641c-28.199-40.817-68.428-129.055-133.076-72.879
			c-64.174,55.765-16.049,154.592,24.787,187.957c41.282,33.729,174.234,64.24,192.758-20.873
			C350.968,216.284,284.902,225.726,253.754,180.641z"/>
	</g>
</g>
<g id="Shadow_1_">
	<ellipse id="_x3C_Path_x3E__238_" style="fill:#F5F5F5;" cx="250" cy="416.238" rx="193.889" ry="11.323"/>
</g>
<g id="Cross_icon">
	<g>
		<g>
			<circle style="fill:#FFFFFF;" cx="340.706" cy="314.543" r="31.677"/>
			<path style="fill:#407BFF;" d="M340.706,346.61c-17.682,0-32.067-14.386-32.067-32.067c0-17.682,14.385-32.066,32.067-32.066
				c17.682,0,32.067,14.385,32.067,32.066C372.773,332.225,358.388,346.61,340.706,346.61z M340.706,283.256
				c-17.252,0-31.288,14.035-31.288,31.287c0,17.252,14.036,31.288,31.288,31.288c17.252,0,31.288-14.036,31.288-31.288
				C371.994,297.291,357.958,283.256,340.706,283.256z"/>
		</g>
		<g>
			<rect x="335.607" y="296.584" style="fill:#407BFF;" width="10.197" height="35.919"/>
			
				<rect x="335.607" y="296.584" transform="matrix(-1.836970e-16 1 -1 -1.836970e-16 655.2489 -26.1628)" style="fill:#407BFF;" width="10.197" height="35.919"/>
		</g>
	</g>
</g>
<g id="Pulse_icon">
	<g>
		<path style="fill:#407BFF;" d="M126.113,75.07l-0.686-0.729c4.678-4.401,10.491-7.202,16.81-8.101l0.141,0.99
			C136.264,68.1,130.64,70.811,126.113,75.07z"/>
		<path style="fill:#407BFF;" d="M118.715,86.002l-0.932-0.363c0.991-2.536,2.319-4.937,3.947-7.138l0.804,0.596
			C120.959,81.226,119.674,83.549,118.715,86.002z"/>
		<circle style="fill:#407BFF;" cx="146.611" cy="96.869" r="27.437"/>
		<path style="fill:#FFFFFF;" d="M162.967,84.509c-4.461-4.628-11.83-4.679-16.356-0.153c-4.525-4.525-11.894-4.475-16.355,0.153
			c-4.379,4.542-4.042,11.859,0.419,16.321l12.97,12.97c1.638,1.639,4.295,1.639,5.934,0l12.97-12.97
			C167.009,96.369,167.346,89.052,162.967,84.509z"/>
		<path style="fill:#407BFF;" d="M146.611,108.862c-0.012,0-0.024,0-0.036-0.001c-0.414-0.015-0.776-0.283-0.91-0.676l-5.792-16.929
			l-2.422,7.081c-0.139,0.405-0.519,0.677-0.946,0.677h-9.692c-0.552,0-1-0.447-1-1c0-0.553,0.448-1,1-1h8.977l3.137-9.171
			c0.139-0.405,0.518-0.677,0.946-0.677c0.428,0,0.808,0.271,0.946,0.677l5.892,17.223l5.717-13.468
			c0.149-0.352,0.485-0.587,0.866-0.607c0.384-0.026,0.741,0.177,0.927,0.51l3.082,5.514h9.105c0.552,0,1,0.447,1,1
			c0,0.553-0.448,1-1,1h-9.692c-0.362,0-0.696-0.196-0.873-0.512l-2.372-4.244l-5.94,13.994
			C147.374,108.623,147.011,108.862,146.611,108.862z"/>
	</g>
</g>
<g id="Character_1_">
	<g>
		<g>
			<path style="fill:#263238;" d="M298.865,381.201H194.493c-7.29,0-12.852-5.965-12.359-13.255l16.881-249.904
				c0.493-7.29,6.86-13.255,14.15-13.255h104.372c7.29,0,12.852,5.965,12.359,13.255l-16.881,249.904
				C312.522,375.236,306.154,381.201,298.865,381.201z"/>
			<path style="fill:#263238;" d="M321.953,206.561h-2.633c-2.035,0-3.588-1.665-3.451-3.701l3.228-47.785
				c0.138-2.035,1.915-3.701,3.951-3.701h2.633c2.035,0,3.588,1.665,3.451,3.701l-3.228,47.785
				C325.766,204.895,323.988,206.561,321.953,206.561z"/>
			<path style="fill:#407BFF;" d="M197.483,174.684h-2.628c-1.665,0-2.934-1.362-2.822-3.027l1.166-17.257
				c0.112-1.665,1.566-3.027,3.231-3.027h2.628c1.665,0,2.935,1.362,2.822,3.027l-1.166,17.257
				C200.602,173.322,199.148,174.684,197.483,174.684z"/>
			<path style="fill:#407BFF;" d="M195.402,205.503h-2.628c-1.665,0-2.935-1.362-2.822-3.027l1.166-17.256
				c0.112-1.665,1.566-3.027,3.231-3.027h2.628c1.665,0,2.935,1.362,2.822,3.027l-1.166,17.256
				C198.52,204.141,197.066,205.503,195.402,205.503z"/>
			<path style="fill:#407BFF;" d="M296.655,381.201H192.283c-7.29,0-12.852-5.965-12.359-13.255l16.881-249.904
				c0.492-7.29,6.86-13.255,14.15-13.255h104.372c7.29,0,12.852,5.965,12.359,13.255l-16.881,249.904
				C310.312,375.236,303.945,381.201,296.655,381.201z"/>
			<polygon style="opacity:0.3;fill:#FFFFFF;" points="181.018,365.196 197.497,121.244 326.561,121.244 310.081,365.196 			"/>
			<polygon style="opacity:0.1;fill:#FFFFFF;" points="231.972,365.196 278.028,121.244 306.939,121.244 260.883,365.196 			"/>
			<polygon style="opacity:0.1;fill:#FFFFFF;" points="210.135,365.196 256.192,121.244 270.836,121.244 224.78,365.196 			"/>
			<path style="fill:#FFFFFF;" d="M250.142,110.916h25.168c0.899,0,1.585,0.736,1.524,1.634l0,0
				c-0.061,0.899-0.846,1.634-1.745,1.634h-25.168c-0.899,0-1.585-0.735-1.524-1.634l0,0
				C248.458,111.652,249.243,110.916,250.142,110.916z"/>
		</g>
		<g>
			<polygon style="fill:#FFB573;" points="244.902,405.246 236.077,406.094 232.896,385.737 241.721,384.89 			"/>
			<path style="fill:#263238;" d="M235.073,401.781l9.233-2.875c0.346-0.108,0.688,0.05,0.823,0.38l3.016,7.339
				c0.313,0.761-0.147,1.717-0.947,1.951c-3.341,0.978-6.515,1.238-10.544,2.966c-4.712,2.021-6.688,4.678-11.75,4.678
				c-3.635,0-4.45-3.327-2.917-3.792c6.976-2.118,6.083-3.859,11.167-9.324C233.707,402.51,234.343,402.008,235.073,401.781z"/>
			<polygon style="opacity:0.2;" points="232.898,385.743 234.536,396.236 243.365,395.388 241.727,384.895 			"/>
			<path style="fill:#FFFFFF;" d="M239.28,128.596c-11.571-1.361-23.08-0.445-34.63,1.795c-3.916,0.759-6.961,3.986-7.411,7.964
				c-1.253,11.059-2.68,35.849,2.898,72.825c0.001,0.004,47.279-3.98,47.279-3.98c0.098-6.713-4.677-37.279-0.731-69.012
				C247.278,133.41,243.996,129.15,239.28,128.596z"/>
			<path style="fill:#263238;" d="M211.746,138.075l1.695,3.389c0.17,0.339,0.509,0.561,0.887,0.58l1.828,0.094
				c0.327,0.017,0.65-0.081,0.913-0.277l3.154-2.347l-3.896-2.833L211.746,138.075z"/>
			<path style="fill:#263238;" d="M216.224,141.175c-1.363-0.508-2.134-0.173-2.134-0.173c-1.492,5.248-3.125,20.319-3.288,26.982
				c4.518,13.162,5.994,14.497,5.994,14.497l2.296-15.847C219.092,166.634,216.522,150.437,216.224,141.175z"/>
			<path style="fill:#FFB573;" d="M229.271,105.795c-1.079,6.52-1.996,18.439,2.675,22.649c-3.424,3.596-7.915,7.765-15.615,8.236
				c-7.7,0.471-6.511-4.862-4.559-7.711c7.187-1.915,6.84-7.278,5.429-12.285L229.271,105.795z"/>
			<path style="fill:#F5F5F5;" d="M233.914,127.869c-0.605-0.273-1.259-0.451-1.698-0.552c-0.292-0.07-0.595,0.049-0.743,0.308
				c-0.747,1.264-3.009,6.891-15.145,9.056c1.994,1.177,4.65,4.843,5.796,6.595c3.639-1.888,13.109-7.54,12.204-14.849
				C234.289,128.187,234.142,127.969,233.914,127.869z"/>
			<path style="fill:#F5F5F5;" d="M211.838,129.266c0.1-0.499-0.327-0.934-0.82-0.84c-0.503,0.095-1.002,0.256-1.24,0.336
				c-0.097,0.032-0.171,0.084-0.256,0.148c-0.929,0.86-5.999,8.175-1.255,14.098c1.056-1.606,4.45-5.262,8.059-6.327
				C212.914,135.136,211.229,132.272,211.838,129.266z"/>
			<path style="opacity:0.2;" d="M224.35,110.238l-7.144,6.44c0.338,1.185,0.609,2.389,0.729,3.562
				c2.753-0.471,6.462-3.603,6.669-6.504C224.707,112.289,224.605,110.904,224.35,110.238z"/>
			<path style="fill:#263238;" d="M214.809,86.089c-6.156,2.406-6.563,7.47-5.954,13.009c0.609,5.539,6.575,1.868,7.912-1.584
				C218.103,94.063,223.34,82.754,214.809,86.089z"/>
			<path style="fill:#FFB573;" d="M234.457,97.118c-1.71,8.71-2.273,13.884-7.261,17.894c-7.503,6.033-17.68,0.818-18.576-8.167
				c-0.807-8.087,2.125-20.972,11.09-23.511C228.542,80.833,236.167,88.409,234.457,97.118z"/>
			<path style="fill:#263238;" d="M234.099,104.333c-7.333,0.389-5.778-3.778-4.445-6.167c1.333-2.389-1.389-6.333,0.389-8.389
				c-3.167,1.259-6.492,0.222-10.722-2.722c-3.283-2.285-7.389,6.865-11.389,2.278c-3.778-4.333-0.268-10.862,8.806-11.917
				c9.074-1.054,10.73,5.378,16.694,4.805c5.964-0.572,3.889,4.333,2.722,5.333C241.154,87.889,243.877,92.667,234.099,104.333z"/>
			<path style="fill:#263238;" d="M235.043,88.166c0,0,3.75-1.805,3.805-6.389C240.793,85.25,240.576,89.189,235.043,88.166z"/>
			<path style="fill:#263238;" d="M216.001,106.423c2.704,0.433,4.497-1.012,4.579-1.081c0.091-0.075,0.105-0.207,0.033-0.296
				c-0.072-0.089-0.205-0.1-0.296-0.026c-0.021,0.017-2.111,1.692-5.09,0.79c-0.111-0.033-0.229,0.029-0.266,0.141
				c-0.036,0.111,0.024,0.228,0.134,0.262C215.408,106.308,215.71,106.376,216.001,106.423z"/>
			<path style="fill:#FFB573;" d="M236.235,106.981c-1.466,1.905-3.656,2.975-5.594,3.224c-2.915,0.373-3.879-2.338-2.656-4.869
				c1.102-2.278,3.946-5.218,6.673-4.425C237.345,101.692,237.912,104.803,236.235,106.981z"/>
			<path style="fill:#263238;" d="M233.343,296.367c0.348-26.112,3.683-88.292,3.683-88.292l-36.859,3.106
				c0,0,7.331,64.09,11.757,90.726c4.599,27.696,18.711,92.559,18.711,92.559l14.963-1.274
				C245.598,393.192,240.154,316.556,233.343,296.367z"/>
			<polygon style="fill:#407BFF;" points="229.728,394.879 247.516,393.373 246.817,387.629 228.285,388.871 			"/>
			<path style="fill:#263238;" d="M221.323,97.639c-0.096,0.714-0.548,1.251-1.01,1.199c-0.462-0.052-0.759-0.672-0.663-1.386
				c0.096-0.714,0.548-1.251,1.01-1.199C221.122,96.304,221.419,96.925,221.323,97.639z"/>
			<path style="fill:#263238;" d="M213.162,96.963c-0.096,0.714-0.548,1.251-1.01,1.199c-0.462-0.052-0.759-0.672-0.663-1.386
				c0.096-0.714,0.548-1.251,1.01-1.199C212.961,95.628,213.258,96.249,213.162,96.963z"/>
			<path style="fill:#ED893E;" d="M215.464,97.842c0,0-2.238,3.448-4.306,5.037c1.06,1.115,3.257,0.807,3.257,0.807L215.464,97.842z
				"/>
			<g>
				<path style="opacity:0.4;fill:#407BFF;" d="M207.978,97.181c-0.146,1.138,1.022,2.091,2.594,2.293s3.054-0.677,3.201-1.815"/>
				<path style="opacity:0.4;fill:#407BFF;" d="M217.449,98.241c-0.215,1.128,0.895,2.149,2.452,2.445
					c1.557,0.296,3.089-0.492,3.304-1.62"/>
				<path style="fill:#263238;" d="M220.52,100.962c-0.177,0-0.357-0.012-0.538-0.034c-0.81-0.104-1.545-0.434-2.069-0.927
					c-0.545-0.513-0.801-1.142-0.72-1.771c-0.066-0.053-0.632-0.276-1.605-0.402c-0.979-0.126-1.585-0.054-1.688,0.036
					c-0.14,1.214-1.658,2.06-3.357,1.85c-0.811-0.104-1.545-0.434-2.07-0.927c-0.545-0.513-0.801-1.142-0.72-1.771l0.478,0.061
					c-0.061,0.473,0.143,0.955,0.573,1.359c0.451,0.424,1.091,0.708,1.801,0.799c1.432,0.189,2.713-0.481,2.842-1.486
					c0.071-0.555,1.235-0.522,2.197-0.399c0.964,0.124,2.099,0.388,2.027,0.942c-0.061,0.473,0.143,0.955,0.572,1.359
					c0.451,0.424,1.091,0.708,1.801,0.799c0.709,0.093,1.401-0.022,1.945-0.317c0.518-0.282,0.837-0.697,0.897-1.169l0.031-0.239
					l12.346,1.587l-0.061,0.479l-11.885-1.528c-0.142,0.528-0.524,0.982-1.098,1.294
					C221.727,100.822,221.138,100.962,220.52,100.962z"/>
			</g>
			<path style="fill:#263238;" d="M224.458,94.502c0.07-0.002,0.14-0.021,0.206-0.059c0.202-0.119,0.273-0.378,0.159-0.578
				c-1.137-2.005-3.066-2.106-3.147-2.109c-0.231-0.01-0.43,0.172-0.445,0.405c-0.015,0.232,0.159,0.428,0.389,0.438l0,0
				c0.063,0.003,1.566,0.098,2.473,1.698C224.17,94.432,224.312,94.505,224.458,94.502z"/>
			<path style="fill:#263238;" d="M210.525,93.372c0.135,0.012,0.274-0.042,0.368-0.156c1.192-1.453,2.692-1.337,2.755-1.332
				c0.229,0.02,0.437-0.15,0.464-0.381c0.027-0.231-0.135-0.436-0.364-0.459c-0.083-0.006-2.003-0.177-3.496,1.644
				c-0.149,0.182-0.127,0.447,0.05,0.593C210.368,93.335,210.446,93.364,210.525,93.372z"/>
			<path style="fill:#263238;" d="M264.046,292.157c-7.651-39.316-9.364-70.068-16.631-84.957l-35.706,3.98
				c0,0,21.274,58.593,31.656,83.598c10.792,26,32.094,70.418,32.094,70.418h17.835
				C293.295,365.196,276.646,310.066,264.046,292.157z"/>
			<path style="fill:#FFB573;" d="M150.863,143.308l-3.834-2.441c-1.3-0.828-3.018-0.628-4.061,0.471l-2.618,2.761
				c-1.193,1.258-1.075,3.23,0.262,4.37l1.873,1.597c1.623,1.385,3.52,2.412,5.566,3.016l5.65,1.666l3.707-3.979
				C158.505,146.574,150.863,143.308,150.863,143.308z"/>
			<g>
				<g>
					<path style="fill:#407BFF;" d="M207.993,141.443c-1.399,3.42-2.771,6.597-4.264,9.851c-1.49,3.227-3.008,6.451-4.673,9.645
						c-1.659,3.199-3.45,6.362-5.468,9.538c-1.021,1.585-2.112,3.167-3.364,4.752c-1.27,1.583-2.65,3.179-4.603,4.77
						c-0.99,0.789-2.141,1.594-3.694,2.277c-0.413,0.167-0.807,0.328-1.27,0.464l-0.697,0.193c-0.257,0.066-0.714,0.146-1.066,0.191
						c-1.476,0.169-2.674-0.025-3.645-0.268c-1.929-0.521-3.099-1.243-4.184-1.902c-1.062-0.674-1.933-1.352-2.749-2.031
						c-3.193-2.717-5.588-5.473-7.947-8.277c-2.332-2.796-4.53-5.608-6.637-8.472c-2.127-2.873-4.147-5.688-6.222-8.704
						l11.058-7.137c3.464,5.566,7.425,11.158,11.557,16.15c2.079,2.456,4.29,4.865,6.373,6.589c0.51,0.419,1.01,0.789,1.407,1.032
						c0.374,0.247,0.743,0.351,0.487,0.256c-0.136-0.038-0.467-0.124-1.086-0.058c-0.14,0.006-0.382,0.065-0.43,0.075
						c-0.026,0.001-0.052,0.006-0.076,0.015c-0.048,0.019-0.048,0.004-0.059,0.016c0.021-0.021,0.309-0.189,0.652-0.487
						c0.709-0.601,1.613-1.615,2.461-2.743c0.858-1.138,1.701-2.411,2.514-3.741c1.636-2.665,3.11-5.578,4.522-8.544
						c1.4-2.977,2.746-6.021,3.976-9.123c1.222-3.078,2.444-6.285,3.449-9.321L207.993,141.443z"/>
				</g>
				<g style="opacity:0.6;">
					<path style="fill:#FFFFFF;" d="M207.993,141.443c-1.399,3.42-2.771,6.597-4.264,9.851c-1.49,3.227-3.008,6.451-4.673,9.645
						c-1.659,3.199-3.45,6.362-5.468,9.538c-1.021,1.585-2.112,3.167-3.364,4.752c-1.27,1.583-2.65,3.179-4.603,4.77
						c-0.99,0.789-2.141,1.594-3.694,2.277c-0.413,0.167-0.807,0.328-1.27,0.464l-0.697,0.193c-0.257,0.066-0.714,0.146-1.066,0.191
						c-1.476,0.169-2.674-0.025-3.645-0.268c-1.929-0.521-3.099-1.243-4.184-1.902c-1.062-0.674-1.933-1.352-2.749-2.031
						c-3.193-2.717-5.588-5.473-7.947-8.277c-2.332-2.796-4.53-5.608-6.637-8.472c-2.127-2.873-4.147-5.688-6.222-8.704
						l11.058-7.137c3.464,5.566,7.425,11.158,11.557,16.15c2.079,2.456,4.29,4.865,6.373,6.589c0.51,0.419,1.01,0.789,1.407,1.032
						c0.374,0.247,0.743,0.351,0.487,0.256c-0.136-0.038-0.467-0.124-1.086-0.058c-0.14,0.006-0.382,0.065-0.43,0.075
						c-0.026,0.001-0.052,0.006-0.076,0.015c-0.048,0.019-0.048,0.004-0.059,0.016c0.021-0.021,0.309-0.189,0.652-0.487
						c0.709-0.601,1.613-1.615,2.461-2.743c0.858-1.138,1.701-2.411,2.514-3.741c1.636-2.665,3.11-5.578,4.522-8.544
						c1.4-2.977,2.746-6.021,3.976-9.123c1.222-3.078,2.444-6.285,3.449-9.321L207.993,141.443z"/>
				</g>
			</g>
			<g>
				<path style="fill:#407BFF;" d="M234.181,126.094c-3.751,6.955-17.101,33.67-18.717,50.128
					c-5.913-14.96-4.619-48.179-4.619-48.179c-2.907,0.077-8.237,1.368-12.275,2.951c-2.614,1.025-4.41,3.516-4.621,6.306
					c-0.613,8.113-1.464,27.429,1.622,51.474c4.146,32.299,8.031,82.522,8.031,82.522s33.049-1.376,58.545-6.755
					c-3.112-24.686-13.753-66.067-13.849-77.151c-0.123-14.26,0.208-42.142,0.66-53.779c0.134-3.444-2.19-6.387-5.52-7.07
					C238.863,125.602,234.181,126.094,234.181,126.094z"/>
				<path style="opacity:0.7;fill:#FFFFFF;" d="M234.181,126.094c-3.751,6.955-17.101,33.67-18.717,50.128
					c-5.913-14.96-4.619-48.179-4.619-48.179c-2.907,0.077-8.237,1.368-12.275,2.951c-2.614,1.025-4.41,3.516-4.621,6.306
					c-0.613,8.113-1.464,27.429,1.622,51.474c4.146,32.299,8.031,82.522,8.031,82.522s33.049-1.376,58.545-6.755
					c-3.112-24.686-13.753-66.067-13.849-77.151c-0.123-14.263,0.208-42.154,0.66-53.786c0.129-3.322-2.005-6.292-5.207-6.996
					C239.08,125.58,234.181,126.094,234.181,126.094z"/>
			</g>
			<path style="fill:#FFFFFF;" d="M226.389,265.94c-5.738-31.666-10.293-78.135-10.664-83.729l0.519-0.035
				c0.371,5.59,4.923,52.025,10.657,83.672L226.389,265.94z"/>
			<g>
				<path style="fill:#FFFFFF;" d="M223.526,209.604h-30.473c-1.196,0-2.385-0.978-2.642-2.174l-10.196-47.369
					c-0.257-1.196,0.51-2.174,1.706-2.174h30.473c1.196,0,2.385,0.978,2.642,2.174l10.196,47.369
					C225.489,208.626,224.721,209.604,223.526,209.604z"/>
				<path style="fill:#407BFF;" d="M222.58,210.038h-30.984c-1.216,0-2.425-0.995-2.686-2.211l-10.367-48.164
					c-0.262-1.216,0.519-2.211,1.735-2.211h30.984c1.216,0,2.425,0.995,2.686,2.211l10.367,48.164
					C224.577,209.043,223.796,210.038,222.58,210.038z"/>
			</g>
			<path style="fill:#FFB573;" d="M226.133,182.822l-7.712-0.288c-0.928-0.035-1.853,0.126-2.715,0.473l-3.981,1.599
				c-1.63,0.655-2.37,2.486-1.64,4.059l1.602,3.451c0.638,1.374,2.203,2.11,3.699,1.74l4.413-1.093c0,0,8.284-0.662,8.58-4.987
				L226.133,182.822z"/>
			<g>
				<g>
					<path style="fill:#407BFF;" d="M247.419,130.377c1.914,2.956,3.656,5.743,5.384,8.68c1.722,2.91,3.41,5.854,5.002,8.896
						c1.582,3.053,3.103,6.175,4.471,9.536c0.672,1.696,1.302,3.455,1.824,5.392c0.498,1.959,0.982,4.034,0.881,6.872l-0.01,0.261
						l-0.006,0.13c0,0.031-0.004,0.09-0.016,0.197c-0.039,0.361-0.095,0.724-0.165,1.079c-0.076,0.318-0.164,0.635-0.262,0.947
						c-0.099,0.309-0.205,0.553-0.319,0.829c-0.451,1.02-0.979,1.817-1.458,2.421c-0.992,1.262-1.901,2.032-2.775,2.764
						c-1.743,1.402-3.369,2.389-4.984,3.308c-3.218,1.802-6.368,3.206-9.526,4.538c-3.145,1.342-6.29,2.561-9.449,3.713
						c-3.17,1.177-6.271,2.258-9.556,3.36l-3.808-12.599c2.961-0.823,6.056-1.827,9.042-2.846c2.995-1.051,5.959-2.161,8.84-3.35
						c2.861-1.211,5.669-2.522,8.144-3.936c1.222-0.699,2.376-1.453,3.172-2.112c0.382-0.309,0.693-0.645,0.693-0.685
						c0.031-0.033-0.074,0.056-0.193,0.331c-0.042,0.085-0.056,0.145-0.098,0.258c-0.044,0.115-0.076,0.236-0.097,0.357
						c-0.041,0.153-0.067,0.313-0.077,0.472c-0.003,0.057-0.004,0.064-0.005,0.044l-0.003-0.022l-0.005-0.045
						c0.006-0.435-0.176-1.604-0.542-2.786c-0.36-1.209-0.859-2.523-1.426-3.851c-1.15-2.671-2.583-5.39-4.139-8.07
						c-1.561-2.683-3.215-5.359-4.968-7.984c-1.748-2.598-3.601-5.272-5.435-7.67L247.419,130.377z"/>
				</g>
				<g style="opacity:0.7;">
					<path style="fill:#FFFFFF;" d="M247.419,130.377c1.914,2.956,3.656,5.743,5.384,8.68c1.722,2.91,3.41,5.854,5.002,8.896
						c1.582,3.053,3.103,6.175,4.471,9.536c0.672,1.696,1.302,3.455,1.824,5.392c0.498,1.959,0.982,4.034,0.881,6.872l-0.01,0.261
						l-0.006,0.13c0,0.031-0.004,0.09-0.016,0.197c-0.039,0.361-0.095,0.724-0.165,1.079c-0.076,0.318-0.164,0.635-0.262,0.947
						c-0.099,0.309-0.205,0.553-0.319,0.829c-0.451,1.02-0.979,1.817-1.458,2.421c-0.992,1.262-1.901,2.032-2.775,2.764
						c-1.743,1.402-3.369,2.389-4.984,3.308c-3.218,1.802-6.368,3.206-9.526,4.538c-3.145,1.342-6.29,2.561-9.449,3.713
						c-3.17,1.177-6.271,2.258-9.556,3.36l-3.808-12.599c2.961-0.823,6.056-1.827,9.042-2.846c2.995-1.051,5.959-2.161,8.84-3.35
						c2.861-1.211,5.669-2.522,8.144-3.936c1.222-0.699,2.376-1.453,3.172-2.112c0.382-0.309,0.693-0.645,0.693-0.685
						c0.031-0.033-0.074,0.056-0.193,0.331c-0.042,0.085-0.056,0.145-0.098,0.258c-0.044,0.115-0.076,0.236-0.097,0.357
						c-0.041,0.153-0.067,0.313-0.077,0.472c-0.003,0.057-0.004,0.064-0.005,0.044l-0.003-0.022l-0.005-0.045
						c0.006-0.435-0.176-1.604-0.542-2.786c-0.36-1.209-0.859-2.523-1.426-3.851c-1.15-2.671-2.583-5.39-4.139-8.07
						c-1.561-2.683-3.215-5.359-4.968-7.984c-1.748-2.598-3.601-5.272-5.435-7.67L247.419,130.377z"/>
				</g>
			</g>
			<path style="fill:#263238;" d="M237.301,165.075c-0.131,0-0.26-0.064-0.335-0.184c-0.118-0.185-0.063-0.431,0.122-0.548
				l1.563-0.993c2.993-1.902,4.483-5.381,3.797-8.859l-3.139-15.905c-0.606-3.07-3.102-4.255-5.056-4.337
				c-1.959-0.081-4.541,0.891-5.401,3.899l-4.454,15.589c-0.974,3.409,0.221,6.999,3.045,9.145l1.474,1.12
				c0.174,0.133,0.208,0.382,0.076,0.557c-0.132,0.175-0.38,0.208-0.556,0.076l-1.474-1.12c-3.086-2.346-4.393-6.269-3.327-9.996
				l4.454-15.589c0.812-2.841,3.253-4.577,6.197-4.474c2.952,0.124,5.23,2.077,5.801,4.975l3.139,15.905
				c0.75,3.803-0.879,7.604-4.15,9.684l-1.563,0.993C237.447,165.056,237.374,165.075,237.301,165.075z"/>
			<path style="fill:#263238;" d="M239.698,138.905c-0.006,0-0.011,0-0.017,0l-11.228-0.47c-0.219-0.009-0.389-0.194-0.38-0.413
				c0.009-0.219,0.201-0.362,0.413-0.38l11.228,0.47c0.219,0.009,0.389,0.194,0.38,0.413
				C240.085,138.738,239.91,138.905,239.698,138.905z"/>
			<path style="fill:#263238;" d="M234.241,134.248c-0.215,0-0.392-0.171-0.396-0.387c-0.047-1.955-0.626-5.469-2.497-6.236
				c-0.203-0.083-0.3-0.315-0.217-0.518c0.083-0.203,0.315-0.3,0.518-0.217c2.772,1.137,2.976,6.359,2.99,6.951
				c0.005,0.22-0.168,0.401-0.387,0.406C234.248,134.248,234.244,134.248,234.241,134.248z"/>
			<path style="fill:#263238;" d="M199.89,147.838c-0.026,0-0.052-0.002-0.079-0.008c-0.215-0.043-0.354-0.252-0.311-0.467
				c1.316-6.57,6.778-16.948,11.587-19.981c0.187-0.115,0.431-0.061,0.547,0.124c0.117,0.186,0.062,0.431-0.124,0.548
				c-4.649,2.933-9.947,13.047-11.232,19.466C200.24,147.708,200.075,147.838,199.89,147.838z"/>
			<path style="fill:#FFFFFF;" d="M203.173,148.872c-0.624,1.591-1.981,2.547-3.031,2.135c-1.049-0.412-1.394-2.036-0.769-3.627
				c0.624-1.591,1.981-2.547,3.031-2.135C203.454,145.658,203.798,147.282,203.173,148.872z"/>
			<path style="fill:#FFFFFF;" d="M229.568,164.356c-0.031,0.747-0.456,1.336-0.949,1.316s-0.867-0.643-0.836-1.39
				c0.031-0.747,0.456-1.336,0.949-1.316C229.225,162.986,229.6,163.609,229.568,164.356z"/>
			<path style="fill:#FFFFFF;" d="M238.193,164.716c-0.031,0.747-0.456,1.336-0.949,1.316c-0.493-0.021-0.867-0.643-0.836-1.39
				c0.031-0.747,0.456-1.336,0.949-1.316C237.85,163.346,238.224,163.969,238.193,164.716z"/>
		</g>
	</g>
</g>
<g id="Chat">
	<g>
		<g>
			<path style="fill:#407BFF;" d="M407.767,150.854l-0.998-0.066c0.298-4.413-1.161-8.578-4.107-11.729
				c-2.939-3.145-6.981-4.876-11.382-4.876v-1c4.68,0,8.982,1.844,12.112,5.192C406.529,141.73,408.083,146.162,407.767,150.854z"/>
			
				<rect x="402.54" y="159.037" transform="matrix(0.0664 -0.9978 0.9978 0.0664 220.4957 554.7276)" style="fill:#407BFF;" width="8.277" height="1"/>
			<path style="fill:#407BFF;" d="M391.279,136.681h-68.96c-7.665,0-14.36,6.271-14.878,13.936l-0.628,9.291
				c-0.518,7.665,5.33,13.936,12.995,13.936h68.96l13.379,8.259l2.127-31.486C404.792,142.953,398.944,136.681,391.279,136.681z"/>
			<rect x="323.866" y="149.987" style="fill:#FFFFFF;" width="63.913" height="2.322"/>
			<rect x="339.771" y="158.218" style="fill:#FFFFFF;" width="47.452" height="2.322"/>
		</g>
		<g>
			<g>
				<path style="fill:#FFFFFF;" d="M287.481,186.378h70.522c7.838,0,13.819,6.414,13.29,14.252l-0.642,9.501
					c-0.53,7.839-7.377,14.252-15.215,14.252h-70.522l-14.823,8.446l2.175-32.199C272.795,192.792,279.642,186.378,287.481,186.378z
					"/>
				<path style="opacity:0.15;fill:#407BFF;" d="M287.481,186.378h70.522c7.838,0,13.819,6.414,13.29,14.252l-0.642,9.501
					c-0.53,7.839-7.377,14.252-15.215,14.252h-70.522l-14.823,8.446l2.175-32.199C272.795,192.792,279.642,186.378,287.481,186.378z
					"/>
			</g>
			<rect x="289.063" y="199.986" style="opacity:0.5;fill:#407BFF;" width="65.36" height="2.375"/>
			<rect x="288.494" y="208.402" style="opacity:0.5;fill:#407BFF;" width="25.827" height="2.375"/>
			<rect x="320.655" y="208.402" style="opacity:0.5;fill:#407BFF;" width="16.496" height="2.375"/>
		</g>
	</g>
</g>
</svg>
