<?xml version="1.0" encoding="utf-8"?>
<!-- Generator: Adobe Illustrator 27.5.0, SVG Export Plug-In . SVG Version: 6.00 Build 0)  -->
<svg version="1.1" xmlns="http://www.w3.org/2000/svg" xmlns:xlink="http://www.w3.org/1999/xlink" x="0px" y="0px"
	 viewBox="0 0 500 500" style="enable-background:new 0 0 500 500;" xml:space="preserve">
<g id="BACKGROUND">
	<rect style="fill:#FFEDE8;" width="500" height="500"/>
</g>
<g id="OBJECTS">
	<g>
		<path style="fill:#CC5252;" d="M371.302,230.401c0,0-7.059-33.876,6.14-33.751c10.175,0.096,7.065,19.79,7.065,19.79
			s15.759-9.161,18.356,2.586C405.982,233.126,371.302,230.401,371.302,230.401z"/>
		<g>
			<g>
				<g>
					<path style="fill:#93564C;" d="M384.371,417.073c0,0,8.235,13.283,17.058,13.627c8.823,0.344,18.119-5.046,18.119-5.046
						S410.386,407.292,384.371,417.073z"/>
					<g>
						<path style="fill:#66312B;" d="M384.388,416.909c1.532-0.029,3.053,0.049,4.574,0.148c1.52,0.102,3.036,0.257,4.547,0.444
							c3.022,0.381,6.027,0.907,9.004,1.573c2.974,0.683,5.919,1.513,8.801,2.537c2.871,1.056,5.691,2.293,8.303,3.893
							c0.078,0.048,0.103,0.15,0.055,0.228c-0.04,0.066-0.12,0.094-0.19,0.072l-0.003-0.001c-2.91-0.895-5.787-1.732-8.688-2.511
							c-2.909-0.752-5.825-1.456-8.751-2.142c-2.931-0.665-5.871-1.308-8.82-1.944c-2.948-0.641-5.904-1.273-8.865-1.97l-0.001,0
							c-0.089-0.021-0.145-0.111-0.124-0.2C384.247,416.962,384.314,416.91,384.388,416.909z"/>
					</g>
				</g>
				<g>
					<path style="fill:#D1B3AC;" d="M399.427,391.208c0,0,13.359,2.794,15.785-6.932c2.427-9.726-8.589-15.168-8.589-15.168
						s12.901-4.692,12.888-14.564s-11.466-7.994-11.466-7.994s3.848-5.76-3.181-11.078c-8.111-6.136-21.324,1.891-20.312,6.397
						c0,0-9.587-9.803-16.617-1.859c-7.03,7.944,2.779,16.555,2.779,16.555s-8.416,2.135-8.812,12.547
						c-0.396,10.412,11.507,11.085,11.507,11.085s-9.338,8.748,1.476,16.929S398.241,395.922,399.427,391.208z"/>
					<g>
						<g>
							<path style="fill:#A88179;" d="M385.744,370.672c-1.016,5.139-6.703,10.189-11.911,9.454
								c3.152-2.095,6.405-3.974,9.022-6.788C383.35,373.112,385.532,369.886,385.744,370.672z"/>
						</g>
						<g>
							<path style="fill:#A88179;" d="M385.276,341.841c3.192,4.971,3.518,11.871,0.668,17.067c-0.082,0.147-0.326,0.081-0.318-0.09
								c0.131-4.267,0.276-8.375-0.19-12.603C385.554,345.661,384.513,341.422,385.276,341.841z"/>
						</g>
						<g>
							<path style="fill:#A88179;" d="M407.87,346.556c-2.719,7.276-9.332,16.393-17.908,15.238
								c5.69-1.916,10.204-5.9,13.809-10.689C404.374,350.624,407.574,345.643,407.87,346.556z"/>
						</g>
						<g>
							<path style="fill:#A88179;" d="M407.024,368.944c-3.484-0.531-7.607-1.449-11.08-2.039c-9.163-1.265,1.19-2.247,4.055-1.422
								C401.219,365.573,407.589,367.823,407.024,368.944z"/>
						</g>
						<g>
							<path style="fill:#A88179;" d="M399.113,391.208c-1.134-7.493-5.212-13.946-10.006-19.418
								c5.47,2.034,9.214,7.976,10.296,13.61C399.614,386.19,400.056,391.687,399.113,391.208z"/>
						</g>
						<g>
							<path style="fill:#A88179;" d="M371.776,356.354c5.049-0.489,10.401,3.048,11.807,7.945c0.044,0.158-0.16,0.284-0.281,0.173
								c-2.661-2.363-5.263-4.503-8.39-6.167C374.561,357.903,371.124,356.801,371.776,356.354z"/>
						</g>
					</g>
					<path style="fill:#FFFFFF;" d="M387.533,375.67c-5.645-3.414-7.43-10.791-4.163-16.523c2.075-3.641,4.774-7.141,7.131-6.217
						c4.609,1.805-2.652,7.526-2.652,7.526s6.67-2.704,8.529,0.092c1.858,2.795-4.31,4.219-4.31,4.219s7.961-0.721,7.526,2.652
						c-0.435,3.374-10.099,1.656-10.099,1.656s6.512,3.732,3.828,6.815C392.091,377.303,389.883,377.092,387.533,375.67z"/>
				</g>
				<g>
					<path style="fill:#A88179;" d="M386.237,445.941c0,0,13.358,2.794,15.785-6.931c2.427-9.726-8.588-15.168-8.588-15.168
						s12.901-4.693,12.888-14.564c-0.013-9.872-11.466-7.993-11.466-7.993s3.848-5.761-3.181-11.078
						c-8.11-6.135-21.324,1.892-20.312,6.398c0,0-9.587-9.803-16.617-1.859c-7.03,7.944,2.779,16.555,2.779,16.555
						s-8.416,2.135-8.811,12.547c-0.396,10.412,11.507,11.085,11.507,11.085s-9.338,8.748,1.476,16.929
						C372.51,460.04,385.051,450.655,386.237,445.941z"/>
					<g>
						<g>
							<path style="fill:#896059;" d="M372.554,425.405c-1.016,5.139-6.704,10.189-11.911,9.454
								c3.152-2.095,6.405-3.974,9.022-6.788C370.161,427.845,372.342,424.619,372.554,425.405z"/>
						</g>
						<g>
							<path style="fill:#896059;" d="M372.086,396.574c3.192,4.971,3.518,11.871,0.668,17.067c-0.082,0.148-0.326,0.081-0.318-0.09
								c0.131-4.266,0.276-8.375-0.19-12.603C372.364,400.394,371.323,396.155,372.086,396.574z"/>
						</g>
						<g>
							<path style="fill:#896059;" d="M394.68,401.289c-2.719,7.276-9.332,16.393-17.908,15.239
								c5.69-1.916,10.204-5.9,13.809-10.689C391.184,405.357,394.384,400.376,394.68,401.289z"/>
						</g>
						<g>
							<path style="fill:#896059;" d="M393.834,423.678c-3.483-0.531-7.607-1.449-11.08-2.039c-9.163-1.265,1.19-2.247,4.055-1.422
								C388.029,420.307,394.399,422.556,393.834,423.678z"/>
						</g>
						<g>
							<path style="fill:#896059;" d="M385.923,445.942c-1.134-7.493-5.212-13.946-10.006-19.418
								c5.47,2.035,9.214,7.976,10.296,13.61C386.424,440.923,386.866,446.42,385.923,445.942z"/>
						</g>
						<g>
							<path style="fill:#A88179;" d="M358.586,411.087c5.049-0.489,10.401,3.048,11.807,7.946c0.044,0.158-0.161,0.284-0.281,0.173
								c-2.661-2.363-5.263-4.503-8.39-6.168C361.371,412.636,357.934,411.534,358.586,411.087z"/>
						</g>
					</g>
					<path style="fill:#FFFFFF;" d="M374.343,430.403c-5.645-3.414-7.43-10.791-4.164-16.523c2.075-3.641,4.774-7.141,7.131-6.218
						c4.609,1.805-2.652,7.526-2.652,7.526s6.67-2.703,8.529,0.092c1.858,2.795-4.31,4.218-4.31,4.218s7.961-0.721,7.526,2.652
						c-0.435,3.374-10.099,1.656-10.099,1.656s6.512,3.732,3.828,6.815C378.901,432.036,376.693,431.825,374.343,430.403z"/>
				</g>
			</g>
			<g>
				<g>
					<path style="fill:#93564C;" d="M65.526,334.701c0,0,0.703,15.613,8.235,20.22c7.532,4.607,18.277,4.441,18.277,4.441
						S93.006,338.863,65.526,334.701z"/>
					<g>
						<path style="fill:#66312B;" d="M65.621,334.566c1.351,0.722,2.64,1.533,3.919,2.362c1.277,0.832,2.524,1.706,3.752,2.607
							c2.451,1.808,4.817,3.734,7.09,5.768c2.262,2.047,4.427,4.21,6.443,6.511c1.99,2.323,3.848,4.78,5.346,7.451
							c0.045,0.08,0.016,0.181-0.063,0.226c-0.068,0.038-0.15,0.024-0.201-0.03l-0.002-0.002c-2.103-2.202-4.205-4.337-6.357-6.433
							c-2.172-2.076-4.373-4.115-6.592-6.142c-2.234-2.012-4.486-4.007-6.748-6.002c-2.26-1.998-4.531-3.993-6.775-6.046
							l-0.001-0.001c-0.068-0.062-0.072-0.167-0.01-0.235C65.473,334.543,65.556,334.531,65.621,334.566z"/>
					</g>
				</g>
				<g>
					<path style="fill:#93564C;" d="M69.516,292.409c0,0,0.703,15.613,8.235,20.22c7.532,4.607,18.277,4.441,18.277,4.441
						S96.995,296.572,69.516,292.409z"/>
					<g>
						<path style="fill:#66312B;" d="M69.611,292.274c1.351,0.722,2.64,1.533,3.919,2.362c1.277,0.832,2.524,1.706,3.752,2.607
							c2.452,1.808,4.817,3.734,7.09,5.768c2.262,2.048,4.427,4.21,6.443,6.511c1.99,2.323,3.848,4.78,5.346,7.451
							c0.045,0.08,0.016,0.181-0.064,0.226c-0.068,0.038-0.15,0.023-0.201-0.03l-0.002-0.002c-2.103-2.202-4.205-4.337-6.357-6.433
							c-2.172-2.076-4.373-4.115-6.592-6.142c-2.234-2.012-4.486-4.008-6.748-6.002c-2.26-1.998-4.531-3.993-6.775-6.046
							l-0.001-0.001c-0.068-0.062-0.072-0.167-0.01-0.235C69.462,292.252,69.545,292.24,69.611,292.274z"/>
					</g>
				</g>
				<g>
					<path style="fill:#93564C;" d="M101.003,271.783c0,0-10.034,11.983-7.595,20.469c2.438,8.486,10.47,15.625,10.47,15.625
						S118.444,293.422,101.003,271.783z"/>
					<g>
						<path style="fill:#66312B;" d="M101.164,271.748c0.507,1.445,0.91,2.914,1.293,4.39c0.379,1.476,0.707,2.963,1.004,4.457
							c0.585,2.989,1.027,6.008,1.327,9.044c0.284,3.038,0.418,6.095,0.349,9.153c-0.103,3.057-0.394,6.123-1.095,9.105
							c-0.021,0.089-0.11,0.145-0.2,0.124c-0.075-0.018-0.127-0.084-0.128-0.158v-0.003c-0.062-3.044-0.168-6.039-0.338-9.038
							c-0.198-2.998-0.442-5.988-0.708-8.982c-0.287-2.992-0.598-5.985-0.918-8.985c-0.315-3-0.641-6.006-0.908-9.036l0-0.001
							c-0.008-0.091,0.06-0.172,0.151-0.18C101.07,271.631,101.139,271.678,101.164,271.748z"/>
					</g>
				</g>
				<g>
					<path style="fill:#93564C;" d="M92.765,440.044c0,0,15.932,6.782,24.144,1.466c8.212-5.315,13.196-16.127,13.196-16.127
						S110.093,414.592,92.765,440.044z"/>
					<g>
						<path style="fill:#66312B;" d="M92.675,439.884c1.369-1.003,2.797-1.902,4.238-2.783c1.443-0.877,2.914-1.703,4.403-2.498
							c2.981-1.582,6.038-3.022,9.16-4.317c3.129-1.278,6.327-2.404,9.591-3.314c3.274-0.874,6.618-1.552,10.005-1.768
							c0.101-0.007,0.189,0.071,0.195,0.172c0.006,0.086-0.048,0.161-0.126,0.187l-0.003,0.001
							c-3.207,1.045-6.348,2.122-9.472,3.266c-3.114,1.174-6.206,2.395-9.294,3.641c-3.08,1.267-6.153,2.56-9.23,3.864
							c-3.079,1.299-6.16,2.612-9.287,3.869l-0.001,0.001c-0.094,0.038-0.202-0.008-0.239-0.102
							C92.581,440.022,92.609,439.933,92.675,439.884z"/>
					</g>
				</g>
				<g>
					<path style="fill:#93564C;" d="M116.953,465.924c0,0,15.751-7.19,17.365-16.839c1.613-9.648-3.008-20.619-3.008-20.619
						S109.846,435.965,116.953,465.924z"/>
					<g>
						<path style="fill:#66312B;" d="M116.775,465.883c0.183-1.687,0.482-3.348,0.803-5.006c0.325-1.657,0.707-3.3,1.124-4.936
							c0.842-3.268,1.841-6.496,2.99-9.675c1.167-3.173,2.492-6.293,4.021-9.317c1.563-3.007,3.317-5.934,5.441-8.58
							c0.064-0.079,0.179-0.092,0.259-0.028c0.067,0.054,0.086,0.145,0.053,0.219l-0.001,0.003
							c-1.391,3.073-2.714,6.118-3.976,9.197c-1.234,3.091-2.416,6.198-3.58,9.318c-1.141,3.129-2.259,6.269-3.371,9.421
							c-1.117,3.15-2.226,6.31-3.406,9.467l-0.001,0.001c-0.036,0.095-0.142,0.143-0.237,0.108
							C116.813,466.045,116.766,465.964,116.775,465.883z"/>
					</g>
				</g>
				<g>
					<path style="fill:#A88179;" d="M105.052,330.592c0,0-18.566,4.693-22.57-6.699c-4.004-11.392,9.051-12.365,9.051-12.365
						s-7.527-8.58,0.214-14.706c7.741-6.126,14.573,2.956,14.573,2.956s-0.738-6.875,8.088-6.377
						c8.909,0.502,8.93,20.044,7.011,25.797C115.887,335.78,105.052,330.592,105.052,330.592z"/>
					<g>
						<path style="fill:#D1B3AC;" d="M97.353,315.79c3.283,2.044,6.367,3.387,10.031,4.615c0.175,0.059,0.199,0.318,0.04,0.409
							c-1.917,1.141-4.356,0.935-6.32,0.028c-1.954-0.922-3.681-2.635-4.09-4.818C96.976,315.839,97.195,315.69,97.353,315.79z"/>
					</g>
					<g>
						<path style="fill:#D1B3AC;" d="M107.984,319.274c-4.341,0.142-7.505-5.635-4.926-9.176c0.107-0.147,0.353-0.104,0.404,0.069
							c0.977,3.407,2.327,6.069,4.684,8.727C108.271,319.032,108.169,319.27,107.984,319.274z"/>
					</g>
					<g>
						<path style="fill:#D1B3AC;" d="M109.127,318.651c-3.296-2.815-0.11-8.16,3.588-8.712c0.174-0.04,0.333,0.141,0.274,0.308
							c-1.105,2.987-3.344,4.913-3.496,8.212C109.493,318.639,109.274,318.754,109.127,318.651z"/>
					</g>
				</g>
				<g>
					<g>
						<path style="fill:#D1B3AC;" d="M121.081,363.446c4.217-30.122-12.122-48.683-30.928-38.091
							c-13.833,7.79-6.882,24.039-2.238,32.089c-8.784-10.374-27.404-13.589-31.998,3.729c-5.236,19.737,14.668,24.39,14.668,24.39
							c-3.64,3.162-11.313,15.262,1.2,26.628s24.436-3.09,24.436-3.09s-0.653,17.686,12.646,18.974
							c13.299,1.288,19.664-6.981,19.664-6.981L121.081,363.446z"/>
						<g>
							<g>
								<path style="fill:#F4D4CE;" d="M110.026,388.762c-0.414,9.943,2.276,19.752,6.605,28.515
									C110.538,409.832,107.569,397.645,110.026,388.762z"/>
							</g>
							<g>
								<path style="fill:#F4D4CE;" d="M62.506,369.075c9.257,6.584,20.916,9.317,32.143,7.639c0.114-0.021,0.17,0.168,0.045,0.201
									C83.947,380.26,69.774,377.106,62.506,369.075z"/>
							</g>
							<g>
								<path style="fill:#F4D4CE;" d="M66.181,362.519c7.798,6.3,17.241,10.206,26.852,12.378
									C83.346,374.907,71.924,369.812,66.181,362.519z"/>
							</g>
							<g>
								<path style="fill:#F4D4CE;" d="M96.48,336.781c1.372,9.492,4.499,18.691,8.091,27.427
									C99.244,356.645,95.758,345.595,96.48,336.781z"/>
							</g>
							<g>
								<path style="fill:#F4D4CE;" d="M102.728,336.292c2.148,9.574,4.473,19.368,5.742,28.991
									c-1.845-4.497-2.85-9.535-3.906-14.337C103.838,346.295,102.356,340.507,102.728,336.292z"/>
							</g>
							<g>
								<path style="fill:#F4D4CE;" d="M70.962,399.35c10.174-2.025,19.4-7.593,26.014-15.575c0.071-0.091,0.237,0.011,0.169,0.119
									C91.993,392.748,80.782,399.734,70.962,399.35z"/>
							</g>
							<g>
								<path style="fill:#F4D4CE;" d="M76.581,406.724c9.718-4.932,17.557-12.907,23.25-21.985
									C96.193,394.653,86.388,404.107,76.581,406.724z"/>
							</g>
							<g>
								<path style="fill:#F4D4CE;" d="M107.262,386.053c-2.348,10.946-1.141,22.362,2.294,32.827
									C104.17,409.458,103.065,395.614,107.262,386.053z"/>
							</g>
						</g>
						<g>
							<path style="fill:#A88179;" d="M87.166,355.783c3.852,5.964,9.366,10.494,14.803,14.643
								c-5.401-0.712-10.208-4.902-13.038-9.472C88.515,360.291,86.162,355.725,87.166,355.783z"/>
						</g>
						<g>
							<path style="fill:#A88179;" d="M70.198,385.424c10.152,1.938,20.717-0.747,28.804-7.158c0.139-0.117,0.355,0.081,0.237,0.229
								c-4.818,6.545-13.399,9.838-21.401,9.256C76.795,387.826,69.415,386.314,70.198,385.424z"/>
						</g>
						<g>
							<path style="fill:#A88179;" d="M103.978,384.548c0.776,8.666-2.076,18.723-8.339,24.707
								c2.369-5.988,5.147-11.975,6.572-18.364C102.607,390.215,103.409,383.724,103.978,384.548z"/>
						</g>
						<path style="fill:#FFFFFF;" d="M114.383,371.409c0,0,2.173-9.05-1.742-9.331c-3.915-0.281-3.226,6.855-3.226,6.855
							s-0.243-8.691-3.353-8.11c-3.11,0.581-2.699,7.217-2.699,7.217s-2.881-9.026-6.242-6.835
							c-3.361,2.191,1.546,10.747,1.546,10.747s-6.852-7.641-9.271-2.867c-2.419,4.774,8.628,8.781,8.628,8.781
							s-10.775,2.379-7.919,7.824c2.855,5.444,10.748-3.018,10.748-3.018s-6.007,12.156-1.705,14.02
							c4.302,1.864,5.228-9.436,5.228-9.436s-0.285,9.801,2.796,10.053c3.082,0.252,3.756-9.437,3.756-9.437
							s0.659,9.441,3.713,9.055C117.695,396.54,114.383,371.409,114.383,371.409z"/>
					</g>
				</g>
			</g>
			<g>
				<path style="fill:#4C2C25;" d="M235.093,41.631c-15.027,2.25-31.78,5.092-42.176,17.242c-4.189,4.8-5.906,10.889-9.683,16.057
					c-1.789,2.489-4.221,4.602-6.935,6.053c-8.663,4.705-18.962,3.574-28.059,6.77c-6.888,2.196-13.619,7.826-12.503,15.7
					c1.019,7.709,4.95,17.045-1.678,23.442c-6.74,6.664-16.411,9.494-22.832,16.528c-5.326,5.366-8.718,13.934-5.427,21.169
					c1.853,3.945,5.536,6.599,7.235,10.745c2.152,4.926-0.318,10.414-3.772,14.023c-5.746,6.57-17.249,10.23-16.902,20.437
					c0.65,8.757,8.788,14.902,9.681,23.62c0.996,5.329-4.415,13.08-10.01,10.656c5.356,0.77,9.733-4.723,9.11-9.981
					c-0.565-5.682-4.395-10.233-7.173-15.063c-7.276-11.937-1.439-19.421,8.627-26.503c4.88-3.683,11.002-9.679,8.294-16.304
					c-1.523-3.511-4.771-6.087-6.699-9.459c-3.874-6.678-2.178-15.247,2.05-21.341c6.233-9.569,17.84-12.908,25.866-20.331
					c5.989-5.925,1.662-14.282,1.043-21.419c-1.49-10.978,9.489-17.827,18.958-19.522c7.578-1.585,15.625-1.389,22.679-4.805
					c5.747-2.58,8.735-8.173,11.546-13.582c5.568-11.827,17.704-18.788,30.065-21.569c6.133-1.482,12.391-2.235,18.638-2.971
					C235.294,41.181,235.35,41.603,235.093,41.631z"/>
			</g>
			<g>
				<path style="fill:#4C2C25;" d="M312.035,55.075c13.823-5.984,29.157,4.731,28.615,19.727c0.046,6.064-4.573,12.122-1.712,17.951
					c1.914,3.606,6.023,5.816,9.041,8.578c8.219,7.355,11.536,19.484,8.39,30.042c-3.158,11.15-16.145,20.423-11.779,32.895
					c2.878,6.462,10.875,8.833,14.604,14.823c6.083,9.109,3.711,21.752-3.539,29.502c-3.36,3.777-7.592,6.73-12.106,8.914
					c-2.129,1.062-4.343,2.1-5.875,3.917c-3.792,3.954-0.354,9.464,4.723,9.427c2.492,0.352,5.12-1.074,7.372-1.213
					c-13.2,7.149-21.977-6.806-6.92-13.498c12.539-6.044,22.291-20.599,15.252-34.235c-2.416-4.63-7.064-7.061-11.023-10.389
					c-6.861-5.009-7.322-14.518-3.769-21.631c2.998-6.708,8.399-12.23,10.565-19.271c2.71-9.011,0.266-19.454-6.201-26.311
					c-3.445-3.618-8.288-5.965-10.651-10.581c-3.2-6.271,1.549-12.728,1.864-18.996c0.461-8.219-4.628-16.462-12.469-19.253
					c-4.535-1.681-9.679-1.758-14.226-0.019C311.957,55.574,311.788,55.161,312.035,55.075z"/>
			</g>
			<path style="fill:#4C2C25;" d="M312.289,54.399c0,0,12.937-0.404,21.022,10.915c8.085,11.32-1.213,26.278,1.213,30.321
				c2.426,4.043,13.341,7.681,15.767,21.022c2.426,13.341-12.532,30.321-15.767,44.066c-3.234,13.745,14.958,19.001,16.575,33.15
				c1.617,14.15-25.065,22.235-27.086,32.746c-2.021,10.511,14.958,19.809,28.703,10.511c0,0-5.255,15.362-29.108,17.788
				c-23.852,2.426-85.706-26.278-85.706-26.278l22.235-73.982L312.289,54.399z"/>
			<g>
				<path style="fill:#D7EBE0;" d="M357.568,309.091c24.256,75.599,16.044,105.569-1.213,119.26
					c-43.055,34.161-109.76,6.873-109.76,6.873s-62.98,14.797-100.866,10.107c-42.449-5.256-37.597-92.983-38.81-120.473
					c-1.213-27.491,2.021-65.492,19.809-78.833c13.264-9.948,108.645-22.281,153.523-23.953
					C295.556,221.501,333.311,233.492,357.568,309.091z"/>
				<g>
					<path style="fill:#F9C4BF;" d="M197.897,237.001c21.063,3.926,43.479,3.535,63.826-3.587
						c8.314-2.91,16.368-6.696,23.905-11.282c-14.745-5.357-34.917-11.43-35.192-16.94c-0.152-3.035,1.747-7.268,4.179-11.37
						c4.046-6.825,9.564-13.29,9.564-13.29l-17.384-34.768l-19.032,22.964l-51.634,62.302
						C183.179,233.682,190.507,235.624,197.897,237.001z"/>
					<path style="fill:#DD9A97;" d="M264.18,180.533c0,0-5.518,6.465-9.564,13.29c-19.032-6.678-26.415-24.609-26.415-24.609
						c-0.147-0.163-0.293-0.323-0.437-0.485l19.032-22.964L264.18,180.533z"/>
				</g>
				<g>
					<path style="fill:#C98989;" d="M250.538,204.992c-0.73,6.367-0.233,12.913-0.421,19.11c-3.18-5.674-2.812-13.417,0.103-19.201
						C250.3,204.747,250.553,204.816,250.538,204.992z"/>
				</g>
				<g>
					<path style="fill:#FFFFFF;" d="M127.941,381.052c0,1.563-1.267,2.83-2.83,2.83c-1.563,0-2.83-1.267-2.83-2.83
						s1.267-2.83,2.83-2.83C126.674,378.222,127.941,379.489,127.941,381.052z"/>
					<path style="fill:#FFFFFF;" d="M356.759,337.795c0,1.563-1.267,2.83-2.83,2.83c-1.563,0-2.83-1.267-2.83-2.83
						s1.267-2.83,2.83-2.83C355.492,334.965,356.759,336.232,356.759,337.795z"/>
					<circle style="fill:#FFFFFF;" cx="223.349" cy="346.284" r="2.83"/>
					<path style="fill:#FFFFFF;" d="M294.501,265.026c0,1.563-1.267,2.83-2.83,2.83c-1.563,0-2.83-1.267-2.83-2.83
						c0-1.563,1.267-2.83,2.83-2.83C293.234,262.196,294.501,263.463,294.501,265.026z"/>
					<path style="fill:#FFFFFF;" d="M307.438,244.003c0,1.563-1.267,2.83-2.83,2.83s-2.83-1.267-2.83-2.83s1.267-2.83,2.83-2.83
						S307.438,242.441,307.438,244.003z"/>
					<path style="fill:#FFFFFF;" d="M267.011,273.92c0,1.563-1.267,2.83-2.83,2.83c-1.563,0-2.83-1.267-2.83-2.83
						c0-1.563,1.267-2.83,2.83-2.83C265.744,271.09,267.011,272.357,267.011,273.92z"/>
					<path style="fill:#FFFFFF;" d="M287.628,311.921c0,1.563-1.267,2.83-2.83,2.83c-1.563,0-2.83-1.267-2.83-2.83
						s1.267-2.83,2.83-2.83C286.362,309.091,287.628,310.358,287.628,311.921z"/>
					<path style="fill:#FFFFFF;" d="M292.783,412.787c0,1.563-1.267,2.83-2.83,2.83c-1.563,0-2.83-1.267-2.83-2.83
						c0-1.563,1.267-2.83,2.83-2.83C291.516,409.957,292.783,411.224,292.783,412.787z"/>
					<path style="fill:#FFFFFF;" d="M345.844,425.522c0,1.563-1.267,2.83-2.83,2.83c-1.563,0-2.83-1.267-2.83-2.83
						c0-1.563,1.267-2.83,2.83-2.83C344.577,422.692,345.844,423.959,345.844,425.522z"/>
					<path style="fill:#FFFFFF;" d="M275.096,245.216c0,1.563-1.267,2.83-2.83,2.83c-1.563,0-2.83-1.267-2.83-2.83
						s1.267-2.83,2.83-2.83C273.829,242.386,275.096,243.653,275.096,245.216z"/>
					<path style="fill:#FFFFFF;" d="M179.688,301.41c0,1.563-1.267,2.83-2.83,2.83c-1.563,0-2.83-1.267-2.83-2.83
						c0-1.563,1.267-2.83,2.83-2.83C178.421,298.58,179.688,299.847,179.688,301.41z"/>
					<path style="fill:#FFFFFF;" d="M195.05,347.902c0,1.563-1.267,2.83-2.83,2.83c-1.563,0-2.83-1.267-2.83-2.83
						s1.267-2.83,2.83-2.83C193.783,345.072,195.05,346.339,195.05,347.902z"/>
					<path style="fill:#FFFFFF;" d="M201.518,258.962c0,1.563-1.267,2.83-2.83,2.83s-2.83-1.267-2.83-2.83
						c0-1.563,1.267-2.83,2.83-2.83S201.518,257.399,201.518,258.962z"/>
					<circle style="fill:#FFFFFF;" cx="181.305" cy="413.798" r="2.83"/>
					<path style="fill:#FFFFFF;" d="M141.282,419.862c0,1.563-1.267,2.83-2.83,2.83c-1.563,0-2.83-1.267-2.83-2.83
						c0-1.563,1.267-2.83,2.83-2.83C140.015,417.032,141.282,418.299,141.282,419.862z"/>
					<path style="fill:#FFFFFF;" d="M140.069,302.623c0,1.563-1.267,2.83-2.83,2.83c-1.563,0-2.83-1.267-2.83-2.83
						c0-1.563,1.267-2.83,2.83-2.83C138.802,299.793,140.069,301.06,140.069,302.623z"/>
					<path style="fill:#FFFFFF;" d="M129.154,334.965c0,1.563-1.267,2.83-2.83,2.83c-1.563,0-2.83-1.267-2.83-2.83
						c0-1.563,1.267-2.83,2.83-2.83C127.887,332.135,129.154,333.402,129.154,334.965z"/>
					<path style="fill:#FFFFFF;" d="M162.708,360.03c0,1.563-1.267,2.83-2.83,2.83s-2.83-1.267-2.83-2.83
						c0-1.563,1.267-2.83,2.83-2.83S162.708,358.467,162.708,360.03z"/>
					<path style="fill:#FFFFFF;" d="M212.029,314.347c0,1.563-1.267,2.83-2.83,2.83c-1.563,0-2.83-1.267-2.83-2.83
						s1.267-2.83,2.83-2.83C210.763,311.517,212.029,312.784,212.029,314.347z"/>
					<path style="fill:#FFFFFF;" d="M280.756,389.542c0,1.563-1.267,2.83-2.83,2.83c-1.563,0-2.83-1.267-2.83-2.83
						c0-1.563,1.267-2.83,2.83-2.83C279.489,386.712,280.756,387.979,280.756,389.542z"/>
					<path style="fill:#FFFFFF;" d="M324.316,399.75c0,1.563-1.267,2.83-2.83,2.83c-1.563,0-2.83-1.267-2.83-2.83
						c0-1.563,1.267-2.83,2.83-2.83C323.049,396.92,324.316,398.187,324.316,399.75z"/>
					<path style="fill:#FFFFFF;" d="M355.546,396.414c0,1.563-1.267,2.83-2.83,2.83s-2.83-1.267-2.83-2.83s1.267-2.83,2.83-2.83
						S355.546,394.852,355.546,396.414z"/>
					<path style="fill:#FFFFFF;" d="M330.684,420.974c0,1.563-1.267,2.83-2.83,2.83c-1.563,0-2.83-1.267-2.83-2.83
						c0-1.563,1.267-2.83,2.83-2.83C329.417,418.144,330.684,419.411,330.684,420.974z"/>
				</g>
			</g>
			<path style="fill:#5C69A0;" d="M305.274,329.522l-57.466,17.773l-32.14,24.256l38.204-7.277l79.44-17.586l0.469-0.38
				C324.483,340.359,315.126,334.496,305.274,329.522z"/>
			<g>
				<g>
					<path style="fill:#85AA95;" d="M126.659,259.559c12.874-3.539,22.151,8.348,25.732,19.291
						c4.639,13.626,7.906,28.058,11.166,42.08c4.149,19.671,9.048,40.29,11.723,59.95c-7.792-30.694-14.487-66.854-23.351-97.306
						c-2.958-11.049-9.676-24.735-23.04-23.906C128.379,259.5,125.948,260.482,126.659,259.559z"/>
				</g>
				<g>
					<path style="fill:#85AA95;" d="M167.046,383.284c16.199-6.483,33.617-9.408,50.615-13.069
						c28.318-5.551,57.193-10.822,85.691-15.273c0.286-0.055,0.39,0.422,0.086,0.474
						C258.583,365.081,210.479,372.603,167.046,383.284z"/>
				</g>
				<g>
					<path style="fill:#85AA95;" d="M273.023,403.071c23.517-7.603,48.407-12.521,71.018-22.638c0.728-0.352,1.394-0.79,2.085-1.204
						c1.495,0.059-2.452,2.204-2.763,2.458c-13.117,7.126-27.733,11.136-42.006,15.266c-5.989,1.65-12.691,3.309-18.754,4.645
						c-3.147,0.686-6.298,1.349-9.476,1.905C272.876,403.554,272.753,403.145,273.023,403.071z"/>
				</g>
			</g>
			<path style="fill:#DD9A97;" d="M309.864,315.155l-3.234,13.947c0,0,17.287,14.891,26.682,12.33
				c3.192-0.87,3.929-10.254,4.851-14.15L309.864,315.155z"/>
			<g>
				<path style="fill:#F9C4BF;" d="M223.705,285.441l11.063-5.795c0,0,4.741-6.849,6.058-13.434
					c1.317-6.585,0.263-13.961-1.58-14.488c-1.844-0.527-4.478,10.01-4.478,10.01s-4.478-6.585-5.005-10.273
					c-0.527-3.688-1.58-8.166-3.161-8.166c-1.581,0-3.424,6.322-3.424,6.322s-1.054-4.478-2.634-4.214
					c-1.58,0.263-3.161,6.849-3.161,6.849s-2.898-1.844-3.951,5.005c0,0-3.424,2.107-3.424,8.166
					C210.008,271.481,215.803,283.598,223.705,285.441z"/>
				<g>
					<path style="fill:#C98989;" d="M217.415,252.105c0.09,4.612,0.942,9.264,1.337,13.732
						C216.441,262.139,215.586,255.71,217.415,252.105z"/>
				</g>
				<g>
					<path style="fill:#C98989;" d="M213.408,257.158c0.084,3.762,0.88,7.558,1.249,11.203
						C212.498,265.345,211.7,260.1,213.408,257.158z"/>
				</g>
				<g>
					<path style="fill:#C98989;" d="M223.205,249.379c0.073,4.793,0.781,9.682,0.924,14.352
						C222.059,259.779,221.377,253.088,223.205,249.379z"/>
				</g>
			</g>
			<g>
				<path style="fill:#4C2C25;" d="M242.35,153.851c0,0,8.894,16.979-0.404,26.278c-9.298,9.298-15.362,7.681-20.214,22.639
					c-4.851,14.958,9.702,19.405,12.533,18.192c0,0-21.022,14.15-30.32-2.021c0,0-5.256,16.171-13.745,22.235
					c-8.49,6.064-11.32,21.831-4.447,25.065c0,0-16.171,4.043-21.022-5.256c0,0-14.15,3.234-19.001-10.511
					c0,0,1.617,22.235-13.745,27.086c0,0,5.66-8.894,1.617-18.192c0,0-4.851,14.958-18.192,12.937
					c-13.341-2.021-19.001-18.597-12.533-28.299c6.468-9.702,5.256-15.362,4.043-19.809c-1.213-4.447-6.468-11.32-4.447-20.618
					c2.021-9.298,14.958-12.533,19.405-21.831c4.447-9.298-11.724-14.958-7.277-30.321c4.447-15.362,24.661-17.788,31.938-29.108
					s-7.681-12.128,1.213-25.873c8.894-13.745,29.916-6.064,40.832-15.362c10.915-9.298,0.404-14.958,11.724-27.49
					c11.32-12.533,25.873-6.873,36.789-14.958c10.915-8.085,28.703-15.362,57.002-4.043c28.299,11.32,27.491,37.597,9.298,53.768
					L242.35,153.851z"/>
				<g>
					<g>
						<g>
							<path style="fill:#2D1410;" d="M128.889,247.073c3.854,1.578,6.432,6.135,5.664,10.25c-0.031,0.154-0.255,0.186-0.327,0.047
								c-1.796-3.495-3.499-6.695-5.551-10.046C128.593,247.189,128.743,247.014,128.889,247.073z"/>
						</g>
						<g>
							<path style="fill:#2D1410;" d="M146.299,230.319c-1.09,6.603-1.05,13.097-0.054,19.709c0.027,0.171-0.223,0.264-0.311,0.111
								c-1.846-2.96-2.608-6.508-2.602-9.974c0.034-3.465,0.819-7,2.657-9.96C146.079,230.056,146.328,230.144,146.299,230.319z"/>
						</g>
						<g>
							<path style="fill:#2D1410;" d="M159.618,243.603c1.083,5.07,2.309,9.872,3.615,14.888c-0.996,0.832-3.963-5.775-3.99-6.914
								C158.771,250.499,158.352,243.393,159.618,243.603z"/>
						</g>
						<g>
							<path style="fill:#2D1410;" d="M172.791,239.504c-0.81,9.66-1.208,22.448,9.354,26.884c0.173,0.058,0.111,0.346-0.075,0.321
								c-8.888-1.09-12.596-11.572-11.364-19.423c0.313-2.692,0.934-5.299,1.76-7.84
								C172.521,239.272,172.803,239.313,172.791,239.504z"/>
						</g>
						<g>
							<path style="fill:#2D1410;" d="M197.225,198.542c6.382,3.562,10.017,13.235,6.547,19.684
								c-0.136-7.026-2.103-13.948-6.759-19.431C196.898,198.662,197.071,198.45,197.225,198.542z"/>
						</g>
						<g>
							<path style="fill:#2D1410;" d="M212.663,210.828c2.16,8.892,11.794,14.004,20.39,10.942c0.169-0.063,0.304,0.191,0.151,0.294
								c-5.997,4.452-15.435,2.097-19.044-4.359C213.397,217.121,211.418,210.272,212.663,210.828z"/>
						</g>
						<g>
							<path style="fill:#2D1410;" d="M193.254,170.954c-1.97,5.924-1.301,12.114-0.014,17.917
								c-3.549-3.357-4.115-9.337-2.645-13.869C190.799,174.262,192.643,170.167,193.254,170.954z"/>
						</g>
						<g>
							<path style="fill:#704740;" d="M164.575,165.721c-2.582,6.831-0.616,14.204,3.425,19.824
								c-5.269-2.372-7.5-9.506-6.226-14.944C161.828,169.734,163.897,164.846,164.575,165.721z"/>
						</g>
						<g>
							<path style="fill:#2D1410;" d="M210.287,79.451c-2.214,17.037-26.979,17.675-30.295,34.007
								c-1.045,7.272,4.954,14.554,1.693,21.757c-5.43,12.157-25.578,7.054-29.183,20.462c-1.151,6.826,2.937,13.311,3.176,20.133
								c0.554,19.729-29.1,14.971-25.412,39.88c0.491,3.992,2.802,7.584,5.165,10.525c-3.206-2.199-5.128-6.541-5.989-10.37
								c-4.4-25.823,24.904-21.813,24.285-39.93c-0.434-6.939-4.592-13.541-3.283-20.649c2.977-14.389,23.241-9.488,29.417-20.875
								c2.923-6.943-2.994-14.03-1.567-21.203C181.97,96.25,206.388,95.875,210.287,79.451z"/>
						</g>
						<g>
							<path style="fill:#2D1410;" d="M110.828,247.747c-0.406,4.577,0.657,8.85,3.005,12.787c0.084,0.138-0.079,0.315-0.223,0.242
								c-2.309-1.082-3.833-3.462-4.4-5.904c-0.559-2.442-0.251-5.237,1.31-7.245C110.62,247.497,110.846,247.584,110.828,247.747z"
								/>
						</g>
						<g>
							<path style="fill:#2D1410;" d="M188.249,151.196c6.549-3.905,10.677-10.439,13.172-17.298
								c0.862,5.836-2.925,11.991-7.682,15.275C193.105,149.712,188.178,152.269,188.249,151.196z"/>
						</g>
						<g>
							<path style="fill:#2D1410;" d="M198.573,155.704c0.545-1.562,6.121-8.911,4.561-3.385c-0.681,1.861-2.331,3.46-4.374,3.657
								C198.619,155.988,198.511,155.831,198.573,155.704z"/>
						</g>
						<g>
							<path style="fill:#2D1410;" d="M264.114,77.498c-12.892,3.775-24.077,12.025-31.63,23.119c-0.1,0.155-0.372,0.022-0.29-0.158
								C237.072,88.361,251.69,77.246,264.114,77.498z"/>
						</g>
						<g>
							<path style="fill:#2D1410;" d="M252.501,72.795c-10.818,3.629-19.936,11.093-25.772,20.884
								c-0.09,0.159-0.364,0.048-0.301-0.135c2.602-8.468,9.469-15.366,17.52-18.869C244.939,74.126,252.691,71.647,252.501,72.795z
								"/>
						</g>
					</g>
					<g>
						<g>
							<path style="fill:#704740;" d="M322.791,101.414c5.718,1.971,7.969,8.708,7.51,14.293
								c-0.386,6.915-3.553,13.399-2.775,20.344c0.88,6.823,8.095,12.546,4.8,19.853c-1.081,2.588-2.521,5.522-4.458,7.346
								c0.877-2.527,2.729-5.035,3.286-7.715c1.962-5.632-2.25-10.164-4.541-14.936C320.949,127.34,336.628,111.547,322.791,101.414
								z"/>
						</g>
						<g>
							<path style="fill:#2D1410;" d="M320.643,133.302c0.325,3.634,0.933,6.885,1.766,10.435c-0.901,0.917-3.327-3.829-3.195-4.827
								C318.811,137.931,319.441,132.853,320.643,133.302z"/>
						</g>
						<g>
							<path style="fill:#2D1410;" d="M329.679,188.112c5.525,4.44,3.248,12.94-0.971,17.496
								c-4.9,5.977-13.473,10.715-12.974,19.407c-0.018,2.161,1.2,3.924,2.233,5.601c-1.947-0.808-3.039-3.409-3.452-5.445
								C311.922,209.617,339.125,203.994,329.679,188.112z"/>
						</g>
						<g>
							<path style="fill:#2D1410;" d="M312.846,210.586c-2.104,4.222-3.261,8.508-3.743,13.196
								c-0.016,0.162-0.254,0.205-0.325,0.058c-1.162-2.27-1.169-4.996-0.483-7.416c0.707-2.413,2.142-4.717,4.305-6.058
								C312.74,210.277,312.92,210.438,312.846,210.586z"/>
						</g>
						<g>
							<path style="fill:#2D1410;" d="M304.884,207.954c-2.366,3.623-3.221,7.695-2.683,11.977c0.022,0.159-0.193,0.258-0.299,0.139
								c-1.677-1.779-2.073-4.506-1.539-6.841c0.534-2.333,2.05-4.615,4.311-5.53C304.824,207.636,304.976,207.82,304.884,207.954z"
								/>
						</g>
					</g>
					<g>
						<path style="fill:#704740;" d="M207.883,116.417c-2.32,3.485-5.33,5.558-6.724,4.63c-1.394-0.928-0.643-4.505,1.676-7.99
							c2.32-3.485,5.33-5.558,6.724-4.63C210.953,109.355,210.203,112.932,207.883,116.417z"/>
						<path style="fill:#704740;" d="M168.327,214.384c-0.689,4.13-2.586,7.254-4.237,6.978c-1.652-0.276-2.433-3.846-1.744-7.976
							c0.689-4.129,2.586-7.254,4.237-6.978C168.234,206.684,169.015,210.254,168.327,214.384z"/>
						<path style="fill:#704740;" d="M135.622,149.606c-2.32,3.485-5.33,5.558-6.724,4.63c-1.394-0.928-0.644-4.505,1.676-7.99
							s5.33-5.558,6.724-4.63S137.942,146.121,135.622,149.606z"/>
						<path style="fill:#704740;" d="M147.472,144.27c-1.16,1.743-2.667,2.78-3.364,2.316c-0.697-0.464-0.322-2.254,0.839-3.997
							c1.16-1.743,2.666-2.78,3.364-2.316C149.007,140.737,148.632,142.527,147.472,144.27z"/>
						<path style="fill:#704740;" d="M218.422,107.279c-1.16,1.743-2.667,2.78-3.364,2.316c-0.697-0.464-0.322-2.254,0.838-3.997
							c1.16-1.743,2.667-2.78,3.364-2.316C219.957,103.746,219.582,105.536,218.422,107.279z"/>
						<path style="fill:#704740;" d="M174.482,223.822c-1.16,1.743-2.666,2.78-3.364,2.316c-0.697-0.464-0.322-2.254,0.839-3.997
							c1.16-1.743,2.667-2.78,3.364-2.316C176.018,220.289,175.642,222.078,174.482,223.822z"/>
					</g>
				</g>
			</g>
			<g>
				<path style="fill:#F9C4BF;" d="M269.032,402.883c-8.49-7.277-44.47-30.32-46.491-29.108
					c-2.021,1.213,3.234,12.532,21.022,22.639c0,0-16.979-4.043-23.852-7.277c-6.873-3.234-23.448-23.448-26.278-22.235
					c-2.83,1.213-1.617,4.851-1.617,4.851s-7.277,1.213,1.617,12.533c0,0-5.256-6.469-7.681-4.043c-2.426,2.426,0,9.702,0,9.702
					s-5.514,2.783,0.808,10.511c18.192,22.235,43.661,29.916,66.705,29.916C276.309,430.373,277.522,410.16,269.032,402.883z"/>
				<g>
					<g>
						<path style="fill:#C98989;" d="M191.898,371.691c6.374,6.855,11.784,15.008,18.619,21.367
							c3.918,2.469,8.044,4.578,12.068,6.902c0.107,0.055,0.028,0.238-0.089,0.186c-4.515-1.884-9.058-3.836-13.22-6.438
							c-4.352-3.898-7.711-8.706-11.318-13.254C196.099,377.667,192.936,374.346,191.898,371.691z"/>
					</g>
					<g>
						<path style="fill:#C98989;" d="M191.5,381.807c6.355,8.604,13.369,16.887,22.013,23.264c1.234,0.908,2.518,1.744,3.82,2.572
							c0.1,0.059,0.02,0.237-0.096,0.182C206.304,402.836,196.397,392.057,191.5,381.807z"/>
					</g>
					<g>
						<path style="fill:#C98989;" d="M185.836,389.887c7.756,8.671,15.966,17.59,26.496,23.001
							C202.007,410.314,190.416,398.321,185.836,389.887z"/>
					</g>
					<g>
						<path style="fill:#C98989;" d="M242.396,395.109c2.047,0.266,4.607,1.226,5.644,2.989
							C246.296,398.087,242.846,396.636,242.396,395.109z"/>
					</g>
				</g>
			</g>
			<g>
				<path style="fill:#F9C4BF;" d="M319.364,159.308c-0.304,1.819-9.097,5.156-11.522,8.793c-0.688,1.032-1.643,3.523-2.806,6.609
					c-1.299,3.449-2.854,7.639-4.582,11.351c-2.176,4.681-4.625,8.601-7.166,9.329c-6.366,1.819-32.746-10.311-39.417-14.858
					c-6.67-4.547-10.612-23.953-10.612-23.953s-3.593,5.716-9.399,5.155c-9.399-0.91-16.069-21.225-7.884-26.38
					c9.82-6.182,15.16,4.246,15.16,4.246c1.819-19.71,17.989-24.726,32.747-28.199c20.618-4.851,20.01-30.32,20.01-30.32
					c34.567,15.766,17.891,51.544,15.768,62.156c0,0,0,0.003-0.003,0.008C307.544,153.854,319.668,157.489,319.364,159.308z"/>
				<path style="fill:#DD9A97;" d="M319.364,159.308c-0.304,1.819-9.097,5.156-11.522,8.793c-7.596-2.699,1.611-24.372,1.816-24.854
					C307.544,153.854,319.668,157.489,319.364,159.308z"/>
				<path style="fill:#C98989;" d="M238.28,147.817c-1.222-4.268-5.486-7.911-10.04-7.555c-0.17,0.009-0.21,0.264-0.052,0.326
					c2.946,1.255,5.388,3.267,7.172,5.781c-1.63-0.845-4.311-1.384-5.974,0.207c-0.12,0.852,4.472,1.191,5.326,1.373
					c0.819,0.143,1.36,0.149,1.68,0.064c0.724,1.312,1.291,2.725,1.671,4.221C238.997,152.678,238.592,148.464,238.28,147.817z"/>
				<path style="fill:#704740;" d="M276.511,125.147c0,0,20.618-12.937,25.671-4.043c0,0,1.011-6.873-2.224-8.692
					C296.725,110.593,283.586,112.008,276.511,125.147z"/>
				<g>
					<path style="fill:#C98989;" d="M298.739,127.156c1.669,3.889,1.711,8.415,0.632,12.47c-0.043,0.157-0.292,0.133-0.299-0.033
						c-0.18-2.988-0.307-6.261-0.523-9.256C298.629,129.886,298.116,126.766,298.739,127.156z"/>
				</g>
				<g>
					<path style="fill:#231F20;" d="M299.633,139.598c-5.989,5.949-18.169,2.236-20.202-5.838c-0.082-0.316,0.366-0.521,0.548-0.25
						c4.337,5.942,12.505,7.804,19.341,5.629C299.585,139.031,299.831,139.391,299.633,139.598z"/>
				</g>
				<path style="fill:#DD9A97;" d="M305.037,174.71c-1.299,3.449-2.854,7.639-4.582,11.351
					c-12.799-1.52-10.804-13.615-10.804-13.615C298.065,172.008,302.775,173.566,305.037,174.71z"/>
				<g>
					<path style="fill:#BA7070;" d="M287.552,167.575c3.426,5.826,8.66,10.122,14.974,12.502c0.163,0.058,0.123,0.323-0.053,0.326
						c-3.589,0.174-7.158-1.344-9.892-3.632c-2.726-2.298-4.845-5.53-5.34-9.085C287.215,167.512,287.464,167.421,287.552,167.575z"
						/>
				</g>
				<path style="fill:#E5ABA8;" d="M283.033,157.189c-1.19,3.722-7.111,5.153-13.225,3.198c-6.114-1.955-10.106-6.557-8.916-10.279
					c1.19-3.722,7.112-5.153,13.226-3.198C280.232,148.865,284.224,153.467,283.033,157.189z"/>
			</g>
			<g>
				<g>
					<g>
						<path style="fill:#FFFFFF;" d="M243.919,74.593c0,0-13.588,5.141-16.039-0.773c-2.451-5.914,3.137-7.207,3.137-7.207
							s-3.927-5.374,0.271-9.045c4.199-3.67,8.771-0.321,8.771-0.321s-6.775-7.796-1.427-10.848
							c5.348-3.052,8.065,3.746,8.065,3.746s-0.7-5.862,5.736-6.253c6.437-0.391,5.115,14.463,5.115,14.463l-1.922,15.42
							L243.919,74.593z"/>
						<g>
							<path style="fill:#CCBABE;" d="M239.102,56.497c6.856,2.399,12.494,9.712,12.313,16.971
								C249.301,65.891,244.955,60.828,239.102,56.497z"/>
						</g>
						<g>
							<g>
								<path style="fill:#E89B34;" d="M249.176,51.945c1.564,0.836,1.919,4.008,0.058,4.435
									C247.63,55.605,247.379,52.32,249.176,51.945z"/>
							</g>
							<g>
								<path style="fill:#E89B34;" d="M238.469,71.056c1.115-1.433,5.23-1.665,5.563,0.274c-1.542,1.527-3.932,1.522-5.554,0.123
									C238.362,71.348,238.358,71.166,238.469,71.056z"/>
							</g>
							<g>
								<path style="fill:#E89B34;" d="M239.624,65.237c2.296-0.381,4.564,1.632,4.322,3.979c-0.019,0.149-0.155,0.254-0.303,0.235
									c-2.122-0.44-3.553-1.835-4.223-3.873C239.373,65.428,239.469,65.266,239.624,65.237z"/>
							</g>
							<g>
								<path style="fill:#E89B34;" d="M244.095,53.717c1.933-0.11,3.512,1.351,3.405,3.315c-0.009,0.152-0.129,0.272-0.277,0.285
									c-1.96,0.16-3.462-1.38-3.405-3.315C243.825,53.849,243.947,53.728,244.095,53.717z"/>
							</g>
						</g>
					</g>
					<path style="fill:#A1C6B1;" d="M257.548,58.355c0,0-2.089-8.24,2.693-11.893c0,0,3.026,6.223,0.251,11.105L257.548,58.355z"/>
					<g>
						<path style="fill:#A1C6B1;" d="M234.416,79.856c0,0,9.208-14.91,24.17-7.452l2.168,5.614
							C260.755,78.018,247.345,86.961,234.416,79.856z"/>
						<g>
							<path style="fill:#759B84;" d="M234.392,79.797c7.574-2.985,17.432-7.482,25.272-4.67
								C251.109,75.074,242.162,77.434,234.392,79.797z"/>
						</g>
					</g>
					<g>
						<path style="fill:#A1C6B1;" d="M207.933,38.059c0,0,17.217-3.265,21.81,12.809l-2.68,5.388
							C227.063,56.256,211.414,52.394,207.933,38.059z"/>
						<g>
							<path style="fill:#759B84;" d="M207.96,38.001c7.314,3.575,17.285,7.816,20.5,15.5
								C222.726,47.151,214.947,42.14,207.96,38.001z"/>
						</g>
					</g>
					<g>
						<path style="fill:#A1C6B1;" d="M237.379,28.844c0,0-15.732,7.72-9.759,23.335l5.377,2.701
							C232.997,54.88,243.198,42.4,237.379,28.844z"/>
						<g>
							<path style="fill:#759B84;" d="M237.322,28.813c-3.705,7.249-9.136,16.625-7.096,24.701
								C231.002,44.994,234.217,36.319,237.322,28.813z"/>
						</g>
					</g>
					<g>
						<path style="fill:#A1C6B1;" d="M352.417,104.311c0,0-5.584-16.61-21.848-12.743l-3.385,4.975
							C327.184,96.543,338.214,108.296,352.417,104.311z"/>
						<g>
							<path style="fill:#759B84;" d="M352.455,104.259c-6.699-4.626-15.279-11.243-23.553-10.283
								C337.246,95.865,345.424,100.193,352.455,104.259z"/>
						</g>
					</g>
					<g>
						<path style="fill:#A1C6B1;" d="M346.032,74.124c0,0,0.973,17.497-15.566,19.936l-4.989-3.365
							C325.477,90.695,331.363,75.69,346.032,74.124z"/>
						<g>
							<path style="fill:#759B84;" d="M346.086,74.159c-4.506,6.78-10.022,16.107-18.061,18.283
								C335.073,87.593,341.063,80.541,346.086,74.159z"/>
						</g>
					</g>
					<g>
						<path style="fill:#A1C6B1;" d="M290.421,61.682c0,0-15.732,7.72-9.759,23.335l5.377,2.702
							C286.039,87.718,296.239,75.238,290.421,61.682z"/>
						<g>
							<path style="fill:#759B84;" d="M290.364,61.652c-3.705,7.249-9.136,16.625-7.096,24.701
								C284.044,77.832,287.259,69.157,290.364,61.652z"/>
						</g>
					</g>
					<g>
						<path style="fill:#A1C6B1;" d="M267.728,101.799c0,0,17.417,1.934,20.762-14.446l-3.086-5.166
							C285.404,82.187,270.098,87.239,267.728,101.799z"/>
						<g>
							<path style="fill:#759B84;" d="M267.759,101.855c7.018-4.126,16.634-9.12,19.249-17.028
								C281.779,91.598,274.409,97.191,267.759,101.855z"/>
						</g>
					</g>
					<g>
						<path style="fill:#FFFFFF;" d="M259.41,74.181c0,0-8.797,1.196-11.4-9.395s7.644-11.452,10.457-7.863
							c0,0,1.298-4.342,5.684-4.502c4.385-0.161,4.537,4.517,4.537,4.517s3.606-3.396,8.479-0.33
							C282.039,59.674,280.525,80.947,259.41,74.181z"/>
					</g>
					<path style="fill:#E89B34;" d="M267.496,66.174c2.6-2.814,2.93-5.757-1.29-2.39c-0.666-4.017-2.354-1.813-2.568,0.83
						c-4.063-6.752-3.237,3.495,0.329,3.976C264.614,69.464,266.936,66.669,267.496,66.174z"/>
				</g>
				<g>
					<g>
						<path style="fill:#FFFFFF;" d="M233.086,65.799c0,0-8.663,6.457-13.174,1.065c-3.19-3.813,0.794-6.985,0.794-6.985
							s-9.302-1.447-7.128-5.762c2.174-4.315,6.772-1.841,6.772-1.841s-4.219-5.383-1.205-8.505
							c3.014-3.122,6.127,0.184,6.127,0.184s-3.087-4.181,4.012-7.181c7.099-3,11.073,10.553,11.073,10.553l1.083,12.59
							L233.086,65.799z"/>
						<g>
							<g>
								<path style="fill:#E89B34;" d="M224.924,57.226c1.48-0.476,4.489-0.416,5.216,1.02c-1.537,1.41-4.189,0.989-5.326-0.721
									C224.745,57.416,224.801,57.265,224.924,57.226z"/>
							</g>
							<g>
								<path style="fill:#E89B34;" d="M226.263,52.312c2.256,0.047,5.451,1.415,5.953,3.648
									C230.495,56.327,225.946,54.011,226.263,52.312z"/>
							</g>
							<g>
								<path style="fill:#E89B34;" d="M230.513,48.993c1.745,0.896,3.729,3.703,2.838,5.522
									C231.79,54.13,229.31,50.074,230.513,48.993z"/>
							</g>
						</g>
					</g>
					<g>
						<g>
							<path style="fill:#FFFFFF;" d="M270.336,70.128c0,0-4.219-5.383-8.674-2.888c-4.455,2.495-2.614,9.267-2.614,9.267
								s-3.458-1.564-5.305,1.593c-3.891,6.652,13.057,22.294,26.228,11.592c11.147-9.058-0.319-28.337-5.614-27.036
								S270.336,70.128,270.336,70.128z"/>
							<path style="fill:#E89B34;" d="M273.926,78.44c0.03-3.831-1.705-6.23-2.562-0.9c-3.195-2.524-2.962,0.243-1.342,2.341
								c-7.549-2.263-0.044,4.763,2.918,2.72C274.007,82.813,273.845,79.183,273.926,78.44z"/>
						</g>
						<g>
							<path style="fill:#CCBABE;" d="M260.053,89.338c4.173-7.426,15.613-8.776,21.358-2.465c0.076,0.083-0.032,0.218-0.129,0.15
								C274.027,82.002,265.8,83.868,260.053,89.338z"/>
						</g>
						<g>
							<path style="fill:#CCBABE;" d="M282.844,71.656c-4.82,2.002-8.003,6.411-9.442,11.201
								C272.523,77.745,278.033,71.276,282.844,71.656z"/>
						</g>
					</g>
					<g>
						<path style="fill:#CCBABE;" d="M258.233,74.523c-8.207,0.382-14.7-11.003-9.594-17.671c1.862-2.615,6.828-3.23,8.402-0.206
							c-1.031-0.754-2.287-1.454-3.627-1.294c-7.416,1.049-5.986,11.241-1.901,15.328c1.698,1.943,4.055,3.359,6.723,3.644
							C258.352,74.328,258.353,74.522,258.233,74.523z"/>
					</g>
					<g>
						<path style="fill:#FFFFFF;" d="M324.15,96.165c0,0,8.692,11.641,13.939,7.972c5.246-3.669,1.23-7.763,1.23-7.763
							s6.201-2.42,4.635-7.772c-1.567-5.352-7.223-4.986-7.223-4.986s9.904-2.931,7.036-8.38c-2.868-5.449-8.814-1.177-8.814-1.177
							s3.742-4.566-1.475-8.356c-5.217-3.79-12.089,9.445-12.089,9.445l-6.67,14.035L324.15,96.165z"/>
						<g>
							<path style="fill:#CCBABE;" d="M337.941,83.497c-7.071-1.663-15.756,1.472-19.506,7.689
								C324.292,85.934,330.678,84.002,337.941,83.497z"/>
						</g>
						<g>
							<g>
								<path style="fill:#E89B34;" d="M331.895,74.243c-1.769-0.136-3.773,2.348-2.433,3.709
									C331.231,78.16,333.209,75.526,331.895,74.243z"/>
							</g>
							<g>
								<path style="fill:#E89B34;" d="M330.648,96.114c-0.17-1.808-3.515-4.215-4.838-2.76c0.479,2.117,2.497,3.398,4.617,3.09
									C330.581,96.417,330.682,96.266,330.648,96.114z"/>
							</g>
							<g>
								<path style="fill:#E89B34;" d="M332.802,90.586c-1.73-1.556-4.726-1.078-5.784,1.031c-0.064,0.136-0.006,0.297,0.13,0.361
									c2.026,0.77,3.982,0.363,5.643-0.995C332.912,90.882,332.917,90.694,332.802,90.586z"/>
							</g>
							<g>
								<path style="fill:#E89B34;" d="M335.226,78.468c-1.571-1.132-3.687-0.749-4.653,0.964c-0.074,0.134-0.037,0.299,0.081,0.389
									c1.566,1.188,3.661,0.699,4.653-0.964C335.383,78.725,335.346,78.558,335.226,78.468z"/>
							</g>
						</g>
					</g>
					<path style="fill:#A1C6B1;" d="M321.39,75.146c0,0,6.192-5.824,4.124-11.475c0,0-5.897,3.621-6.182,9.228L321.39,75.146z"/>
					<g>
						<path style="fill:#A1C6B1;" d="M329.333,105.712c0,0,0.253-17.522-16.373-19.279l-4.846,3.568
							C308.114,90.001,314.612,104.751,329.333,105.712z"/>
						<g>
							<path style="fill:#759B84;" d="M329.385,105.675c-4.781-6.589-10.675-15.681-18.797-17.525
								C317.83,92.705,324.104,99.505,329.385,105.675z"/>
						</g>
					</g>
					<g>
						<path style="fill:#FFFFFF;" d="M308.909,88.807c0,0,9.176,4.421,17.065-3.11c7.889-7.531-0.288-13.766-4.589-12.253
							c0,0,1.24-4.359-2.372-6.852c-3.611-2.493-6.254,1.369-6.254,1.369s-1.214-4.802-6.972-4.837
							C300.031,63.09,287.467,83.158,308.909,88.807z"/>
					</g>
					<path style="fill:#E89B34;" d="M308.798,76.39c-0.679-3.771,0.625-6.429,2.372-1.322c2.721-3.029,2.96-0.263,1.719,2.08
						c7.056-3.509,0.85,4.687-2.415,3.175C309.46,80.714,309.004,77.109,308.798,76.39z"/>
					<g>
						<path style="fill:#CCBABE;" d="M311.815,88.92c6.705,4.75,18.473-1.646,17.857-10.19c-0.123-3.275-3.967-6.483-6.967-4.703
							c1.286-0.1,2.732-0.032,3.772,0.829c5.669,4.905-1.173,12.99-6.875,14.343c-2.505,0.773-5.275,0.735-7.681-0.453
							C311.823,88.686,311.715,88.854,311.815,88.92z"/>
					</g>
					<g>
						<g>
							<path style="fill:#CCBABE;" d="M258.916,76.988c-3.904-6.172,3.534-13.502,9.689-9.461c0.464,0.142,2.802,2.463,2.09,2.567
								C264.638,64.112,257.113,69.579,258.916,76.988z"/>
						</g>
						<g>
							<path style="fill:#CCBABE;" d="M270.91,70.152c-3.648-4.349,2.759-10.111,6.775-6.062c0.277,0.23,1.353,1.708,0.79,1.698
								C274.397,61.501,269.7,65.2,270.91,70.152z"/>
						</g>
					</g>
					<g>
						<g>
							<g>
								<path style="fill:#FFFFFF;" d="M303.781,76.607c0,0,6.452-2.27,8.867,2.229c2.415,4.499-2.778,9.219-2.778,9.219
									s3.756,0.54,3.616,4.195c-0.295,7.701-22.996,11.777-28.346-4.328c-4.528-13.63,15.504-23.721,19.27-19.777
									C308.174,72.089,303.781,76.607,303.781,76.607z"/>
								<path style="fill:#E89B34;" d="M296.285,81.685c2.034-3.246,4.788-4.336,2.644,0.618c4.051-0.41,2.367,1.797-0.128,2.696
									c7.581,2.151-2.524,4.039-3.923,0.724C293.866,85.329,295.954,82.355,296.285,81.685z"/>
							</g>
							<g>
								<path style="fill:#CCBABE;" d="M302.123,98.333c0.474-8.505-8.446-15.795-16.684-13.562
									c-0.108,0.029-0.09,0.201,0.028,0.196C294.284,84.634,300.219,90.631,302.123,98.333z"/>
							</g>
							<g>
								<path style="fill:#CCBABE;" d="M292.414,71.17c2.988,4.279,3.301,9.709,1.939,14.521
									C297.842,81.853,296.674,73.437,292.414,71.17z"/>
							</g>
						</g>
						<g>
							<g>
								<path style="fill:#CCBABE;" d="M310.4,87.81c6.375-3.562,3.335-13.552-4.002-12.938c-0.475-0.096-3.638,0.827-3.061,1.258
									C311.514,73.764,315.52,82.159,310.4,87.81z"/>
							</g>
							<g>
								<path style="fill:#CCBABE;" d="M303.12,76.08c5.281-2.082,2.399-10.203-3.062-8.559c-0.353,0.07-2.004,0.856-1.505,1.115
									C304.183,66.814,306.547,72.305,303.12,76.08z"/>
							</g>
						</g>
					</g>
					<g>
						<g>
							<path style="fill:#CCBABE;" d="M227.635,67.818c0.056-0.967,1.374-2.164,2.21-1.549
								C229.815,67.249,228.453,68.411,227.635,67.818z"/>
						</g>
						<g>
							<path style="fill:#CCBABE;" d="M231.999,68.037c-6.25-3.59-2.864-13.46,4.379-12.266c1.342,0.204,2.726,0.806,3.611,1.838
								c0.075,0.085-0.036,0.213-0.13,0.15C232.066,53.687,226.71,62.022,231.999,68.037z"/>
						</g>
						<g>
							<path style="fill:#CCBABE;" d="M238.374,56.565c-3.746-2.467-2.948-9.499,1.375-10.65
								C236.533,49.522,236.825,52.7,238.374,56.565z"/>
						</g>
					</g>
					<g>
						<path style="fill:#CCBABE;" d="M324.193,71.097c1.229-5.56,7.725-9.758,11.111-3.434c0.647,1.687,0.24,3.662-0.955,4.84
							c-0.081,0.08-0.215-0.024-0.157-0.121c1.965-3.256-1.071-7.524-4.711-6.383c-2.422,0.779-3.728,3.117-5.108,5.182
							C324.317,71.277,324.155,71.205,324.193,71.097z"/>
					</g>
					<g>
						<path style="fill:#CCBABE;" d="M334.418,73.701c5.234-6.557,14.036,3.098,7.176,7.831c-0.312,0.282-2.636,1.175-2.463,0.569
							C346.984,78.73,341.052,69.239,334.418,73.701z"/>
					</g>
				</g>
			</g>
			<g>
				<path style="fill:#704740;" d="M345.44,256.738c0,0-4.851-2.729-1.516-6.064c3.335-3.335,13.947,1.516,13.947,1.516
					s-1.213-8.49,16.373-2.426c17.586,6.064,22.437,20.921,24.256,39.113c1.819,18.192-4.245,63.673-46.39,45.178l-11.219-68.827
					L345.44,256.738z"/>
				<path style="fill:#F9C4BF;" d="M345.44,256.738c0,0-4.548-0.303-10.915,2.729c-6.367,3.032-9.703,6.064-12.128,6.974
					c-2.426,0.91-8.893-2.372-16.676,1.819c-7.883,4.245-15.46,16.8-13.038,34.565c2.729,20.012,23.6,28.661,35.778,30.927
					c13.038,2.426,25.469,0.606,25.469,0.606l7.277-12.431c0,0-7.58-9.399-4.245-18.192c3.335-8.793,8.186-11.219,8.186-11.219
					s-12.431-6.367-8.49-15.767C356.658,276.75,339.375,267.653,345.44,256.738z"/>
				<g>
					<g>
						<path style="fill:#4C2C25;" d="M384.643,268.452c4.094,0.455,6.047,9.492,2.739,4.801
							C386.87,272.432,384.044,269.064,384.643,268.452z"/>
					</g>
					<g>
						<path style="fill:#4C2C25;" d="M344.196,254.946c3.323,2.106,6.654,3.665,10.346,5.015c-0.133,1.202-5.228,0.141-6.133-0.527
							C347.42,259.224,343.237,255.611,344.196,254.946z"/>
					</g>
					<g>
						<path style="fill:#4C2C25;" d="M357.898,251.752c4.437-0.249,9.069,2.362,11.048,6.361c0.063,0.13-0.095,0.27-0.216,0.191
							c-2.699-1.693-5.204-3.395-8.04-4.81C360.333,253.143,357.357,252.186,357.898,251.752z"/>
					</g>
					<g>
						<path style="fill:#4C2C25;" d="M357.035,276.052c3.668,1.583,7.247,2.68,11.136,3.578c0.001,1.202-5.226,0.788-6.228,0.264
							C360.836,279.722,356.337,277.01,357.035,276.052z"/>
					</g>
					<g>
						<path style="fill:#4C2C25;" d="M364.611,291.839c2.973,1.403,5.819,2.312,9.021,3.046c0.127,1.172-4.312,1.03-5.198,0.511
							C367.462,295.294,363.755,292.609,364.611,291.839z"/>
					</g>
					<g>
						<path style="fill:#4C2C25;" d="M370.918,297.659c3.297,1.112,6.455,1.578,9.93,1.625c0.44,1.118-4.395,1.872-5.335,1.444
							C374.481,300.806,370.163,298.582,370.918,297.659z"/>
					</g>
					<g>
						<path style="fill:#4C2C25;" d="M364.282,319.655c4.288,0.073,8.213-1.543,11.303-4.503c0.102-0.101,0.288,0.008,0.248,0.146
							c-0.583,2.318-2.568,4.122-4.755,4.982c-2.185,0.862-4.853,0.912-6.878-0.348C364.075,319.857,364.136,319.65,364.282,319.655
							z"/>
					</g>
					<g>
						<path style="fill:#4C2C25;" d="M373.006,322.407c2.408-1.582,4.394-3.191,6.552-5.1c1.007,0.59-1.144,3.667-2.027,4.156
							C376.933,322.166,373.163,323.514,373.006,322.407z"/>
					</g>
					<g>
						<path style="fill:#4C2C25;" d="M382.571,260.538c1.895,0.51,4.304,2.437,4.128,4.431
							C385.065,264.839,381.931,262.023,382.571,260.538z"/>
					</g>
				</g>
				<g>
					<g>
						<path style="fill:#231F20;" d="M326.135,266.219c-1.765,4.116-0.225,8.615,3.601,10.902c0.139,0.083,0.076,0.314-0.084,0.318
							c-2.629,0.134-5.079-1.909-5.875-4.398c-0.821-2.479-0.069-5.555,2.102-7.031
							C326.015,265.916,326.201,266.069,326.135,266.219z"/>
					</g>
					<g>
						<path style="fill:#231F20;" d="M334.031,289.878c-2.494,5.067-0.149,11.039,5.054,13.172c0.158,0.062,0.116,0.318-0.053,0.326
							c-4.98,0.419-9.031-5.095-7.692-9.802C331.305,292.798,333.548,288.863,334.031,289.878z"/>
					</g>
					<g>
						<path style="fill:#C98989;" d="M319.523,287.981c-0.443-2.277-1.907-9.394,1.896-9.17c2.589,1,4.625,3.342,7.291,4.024
							c1.766,0.554,3.62,0.542,5.457,0.148c0.151-0.037,0.246,0.189,0.107,0.268c-4.438,2.974-10.084-0.098-13.158-2.775
							c-1.22,2.179-0.943,5.025-1.306,7.483C319.8,288.117,319.557,288.135,319.523,287.981z"/>
					</g>
					<g>
						<g>
							<path style="fill:#704740;" d="M335.007,262.405c3.873,0.069,7.076,4.62,5.718,8.278c-0.053,0.142-0.268,0.148-0.328,0.01
								c-1.367-3.109-3.045-5.639-5.512-7.981C334.77,262.607,334.853,262.401,335.007,262.405z"/>
						</g>
						<g>
							<path style="fill:#704740;" d="M348.405,289.206c3.09,2.803,3.571,8.24,0.905,11.481c-0.101,0.12-0.313,0.042-0.31-0.115
								c0.061-3.869-0.16-7.401-0.883-11.205C348.087,289.213,348.289,289.1,348.405,289.206z"/>
						</g>
					</g>
					<g>
						<path style="fill:#BA7070;" d="M309.624,285.251c0.979,5.526,3.473,10.69,8.773,13.17c0.15,0.077,0.086,0.326-0.083,0.319
							c-3.119,0.041-6.199-1.87-7.759-4.579c-1.58-2.682-2.078-5.952-1.259-8.934C309.341,285.058,309.604,285.076,309.624,285.251z
							"/>
					</g>
					<path style="fill:#E5ABA8;" d="M312.616,272.73c0.672,3.395-0.558,6.499-2.748,6.932c-2.19,0.434-4.511-1.967-5.183-5.361
						c-0.672-3.395,0.558-6.498,2.748-6.932C309.624,266.935,311.944,269.335,312.616,272.73z"/>
					<path style="fill:#E5ABA8;" d="M332.845,306.742c2.501,3.346,2.625,7.481,0.277,9.237c-2.348,1.756-6.28,0.467-8.781-2.879
						c-2.501-3.346-2.626-7.481-0.277-9.237C326.412,302.107,330.343,303.396,332.845,306.742z"/>
				</g>
				<path style="fill:#E5ABA8;" d="M357.164,328.092c0,0,10.107,8.49-3.234,12.533c-13.341,4.043-16.171-9.298-16.171-9.298
					l5.14,0.271C347.895,331.86,352.858,330.641,357.164,328.092L357.164,328.092z"/>
			</g>
			<g>
				<path style="fill:#99A1D8;" d="M343.076,344.823c-3.022,15.477-26.849,34.024-68.789,26.929
					c-58.009-9.81-53.768-86.917-53.768-86.917s10.916-10.108,23.043-11.319c0,0,0.512,1.293,1.443,3.48
					c3.888,9.159,15.109,34.013,26.857,45.436c14.554,14.149,58.257-0.544,67.917,9.703
					C342.945,335.491,344.015,340.009,343.076,344.823z"/>
				<path style="fill:#7782BC;" d="M343.076,344.823c-3.022,15.477-26.849,34.024-68.789,26.929
					c-58.009-9.81-53.768-86.917-53.768-86.917s10.916-10.108,23.043-11.319c0,0,0.512,1.293,1.443,3.48
					c-3.179,1.384-18.472,8.271-20.646,13.701c-2.424,6.062,9.703,52.149,32.141,65.493
					C277.741,368.822,316.379,369.494,343.076,344.823z"/>
			</g>
			<g>
				<path style="fill:#F9C4BF;" d="M300.661,361.44c8.623-7.118,45.025-29.491,47.023-28.241c1.999,1.25-3.466,12.47-21.438,22.246
					c0,0,17.052-3.727,23.983-6.834s23.878-23.009,26.685-21.744c2.807,1.265,1.527,4.88,1.527,4.88s7.253,1.347-1.849,12.5
					c0,0,5.374-6.37,7.755-3.9c2.38,2.47-0.18,9.701-0.18,9.701s5.462,2.885-1.003,10.494
					c-18.601,21.894-44.208,29.102-67.248,28.675C292.876,388.791,292.038,368.558,300.661,361.44z"/>
				<g>
					<g>
						<path style="fill:#C98989;" d="M378.361,331.683c-6.5,6.735-12.06,14.787-19.012,21.019
							c-3.963,2.396-8.128,4.428-12.194,6.677c-0.108,0.053-0.033,0.238,0.086,0.187c4.549-1.8,9.128-3.668,13.337-6.192
							c4.423-3.816,7.871-8.561,11.561-13.042C374.049,337.581,377.273,334.318,378.361,331.683z"/>
					</g>
					<g>
						<path style="fill:#C98989;" d="M378.571,341.805c-6.514,8.485-13.68,16.636-22.441,22.852c-1.25,0.885-2.55,1.697-3.867,2.501
							c-0.101,0.057-0.024,0.237,0.093,0.184C363.38,362.556,373.485,351.963,378.571,341.805z"/>
					</g>
					<g>
						<path style="fill:#C98989;" d="M384.084,349.988c-7.915,8.525-16.289,17.29-26.918,22.506
							C367.537,370.112,379.349,358.336,384.084,349.988z"/>
					</g>
					<g>
						<path style="fill:#C98989;" d="M327.437,354.161c-2.052,0.228-4.629,1.14-5.698,2.884
							C323.483,357.066,326.959,355.68,327.437,354.161z"/>
					</g>
				</g>
			</g>
			<g>
				<g>
					<path style="fill:#66312B;" d="M251.612,457.063c0,0,2.367,15.449,10.349,19.224c7.981,3.776,18.647,2.463,18.647,2.463
						S279.379,458.265,251.612,457.063z"/>
					<g>
						<path style="fill:#93564C;" d="M251.692,456.919c1.42,0.574,2.789,1.243,4.149,1.93c1.359,0.69,2.692,1.427,4.009,2.191
							c2.631,1.535,5.189,3.198,7.666,4.978c2.468,1.794,4.851,3.713,7.101,5.785c2.227,2.097,4.337,4.341,6.112,6.837
							c0.053,0.075,0.036,0.178-0.039,0.232c-0.063,0.045-0.147,0.039-0.203-0.008l-0.002-0.002
							c-2.326-1.965-4.645-3.863-7.008-5.717c-2.381-1.832-4.787-3.624-7.211-5.402c-2.436-1.761-4.888-3.505-7.351-5.247
							c-2.461-1.745-4.932-3.486-7.383-5.288l-0.001-0.001c-0.074-0.054-0.09-0.158-0.035-0.232
							C251.542,456.912,251.623,456.891,251.692,456.919z"/>
					</g>
				</g>
				<g>
					<path style="fill:#93564C;" d="M242.44,452.029c0,0-5.301,14.703-0.092,21.833c5.208,7.13,15.205,11.072,15.205,11.072
						S266.259,466.35,242.44,452.029z"/>
					<g>
						<path style="fill:#66312B;" d="M242.579,451.941c0.973,1.183,1.856,2.424,2.723,3.677c0.864,1.256,1.683,2.539,2.475,3.84
							c1.577,2.605,3.031,5.288,4.357,8.035c1.311,2.755,2.488,5.58,3.475,8.475c0.954,2.906,1.736,5.885,2.103,8.926
							c0.011,0.091-0.054,0.174-0.145,0.185c-0.077,0.009-0.148-0.035-0.175-0.104l-0.001-0.003
							c-1.105-2.837-2.235-5.612-3.426-8.37c-1.216-2.747-2.475-5.471-3.754-8.19c-1.298-2.711-2.62-5.415-3.952-8.121
							c-1.328-2.709-2.667-5.419-3.96-8.172l-0.001-0.001c-0.039-0.083-0.003-0.182,0.08-0.221
							C242.451,451.863,242.532,451.883,242.579,451.941z"/>
					</g>
				</g>
				<g>
					<path style="fill:#93564C;" d="M334.103,454.937c0,0,4.012,15.105,12.353,18.002c8.341,2.897,18.803,0.446,18.803,0.446
						S361.838,453.15,334.103,454.937z"/>
					<g>
						<path style="fill:#66312B;" d="M334.167,454.784c1.474,0.418,2.906,0.936,4.332,1.473c1.425,0.541,2.829,1.129,4.221,1.748
							c2.78,1.244,5.502,2.622,8.156,4.126c2.646,1.519,5.222,3.171,7.682,4.989c2.439,1.846,4.777,3.85,6.81,6.141
							c0.061,0.069,0.055,0.174-0.014,0.234c-0.058,0.051-0.142,0.055-0.203,0.014l-0.003-0.002
							c-2.523-1.703-5.032-3.342-7.581-4.931c-2.564-1.566-5.149-3.089-7.749-4.597c-2.611-1.49-5.236-2.96-7.872-4.427
							c-2.634-1.471-5.278-2.936-7.908-4.465l-0.001-0.001c-0.079-0.046-0.106-0.148-0.06-0.227
							C334.016,454.794,334.095,454.764,334.167,454.784z"/>
					</g>
				</g>
				<g>
					<path style="fill:#93564C;" d="M170.532,469.024c0,0,15.153,3.828,21.736-2.056c6.583-5.884,9.521-16.22,9.521-16.22
						S182.439,443.912,170.532,469.024z"/>
					<g>
						<path style="fill:#66312B;" d="M170.43,468.895c1.081-1.085,2.229-2.086,3.391-3.072c1.165-0.983,2.362-1.925,3.578-2.841
							c2.438-1.826,4.964-3.536,7.568-5.126c2.613-1.576,5.308-3.025,8.092-4.292c2.798-1.236,5.686-2.307,8.676-2.971
							c0.09-0.02,0.178,0.037,0.198,0.126c0.017,0.076-0.021,0.151-0.087,0.184l-0.003,0.001c-2.714,1.379-5.365,2.776-7.992,4.233
							c-2.614,1.481-5.201,3.001-7.781,4.542c-2.57,1.559-5.13,3.14-7.693,4.732c-2.565,1.588-5.13,3.188-7.743,4.745l-0.001,0.001
							c-0.079,0.047-0.181,0.021-0.228-0.058C170.365,469.03,170.378,468.947,170.43,468.895z"/>
					</g>
				</g>
				<g>
					<path style="fill:#93564C;" d="M167.337,418.635c0,0-0.871,15.605,6.16,20.946c7.031,5.341,17.737,6.257,17.737,6.257
						S194.258,425.54,167.337,418.635z"/>
					<g>
						<path style="fill:#66312B;" d="M167.444,418.51c1.271,0.855,2.472,1.791,3.662,2.744c1.187,0.956,2.34,1.951,3.471,2.971
							c2.257,2.045,4.417,4.199,6.474,6.453c2.045,2.264,3.981,4.634,5.755,7.126c1.746,2.511,3.348,5.143,4.57,7.951
							c0.037,0.084-0.002,0.182-0.086,0.219c-0.071,0.031-0.152,0.008-0.197-0.05l-0.002-0.003
							c-1.871-2.402-3.748-4.738-5.678-7.039c-1.952-2.284-3.937-4.534-5.941-6.773c-2.02-2.226-4.06-4.438-6.111-6.65
							c-2.048-2.215-4.107-4.429-6.133-6.697l-0.001-0.001c-0.061-0.068-0.055-0.173,0.013-0.235
							C167.299,418.472,167.383,418.469,167.444,418.51z"/>
					</g>
				</g>
				<g>
					<path style="fill:#A88179;" d="M245.981,444.427c0,0-6.584-17.982,4.334-23.141c10.918-5.158,13.233,7.726,13.233,7.726
						s7.758-8.372,14.65-1.305c6.892,7.067-1.437,14.8-1.437,14.8s6.762-1.443,7.178,7.387c0.42,8.913-19.016,10.951-24.936,9.636
						C241.939,455.74,245.981,444.427,245.981,444.427z"/>
					<g>
						<path style="fill:#D1B3AC;" d="M259.909,435.242c-1.695,3.476-2.712,6.682-3.555,10.453c-0.041,0.18-0.295,0.231-0.402,0.081
							c-1.333-1.789-1.379-4.236-0.68-6.283c0.715-2.039,2.242-3.933,4.37-4.565C259.822,434.872,259.993,435.074,259.909,435.242z"
							/>
					</g>
					<g>
						<path style="fill:#D1B3AC;" d="M257.541,446.176c-0.59-4.303,4.83-8.046,8.618-5.847c0.157,0.091,0.14,0.34-0.027,0.409
							c-3.289,1.323-5.797,2.941-8.197,5.56C257.811,446.436,257.564,446.359,257.541,446.176z"/>
					</g>
					<g>
						<path style="fill:#D1B3AC;" d="M258.278,447.248c2.46-3.569,8.105-0.951,9.036,2.669c0.058,0.169-0.106,0.346-0.278,0.304
							c-3.085-0.791-5.231-2.819-8.529-2.63C258.328,447.611,258.191,447.405,258.278,447.248z"/>
					</g>
				</g>
				<g>
					<path style="fill:#D1B3AC;" d="M243.466,434.501c0,0,1.066-13.606-8.89-14.771c-9.956-1.165-13.948,10.454-13.948,10.454
						s-6.301-12.197-16.09-10.923c-9.789,1.273-6.464,12.392-6.464,12.392s-6.205-3.081-10.581,4.57
						c-5.05,8.827,4.598,20.908,8.938,19.329c0,0-8.499,10.76,0.278,16.718c8.776,5.958,16.064-4.87,16.064-4.87
						s3.192,8.075,13.569,7.138c10.378-0.937,9.526-12.828,9.526-12.828s9.869,8.145,16.602-3.625
						C259.203,446.315,248.293,435.075,243.466,434.501z"/>
					<g>
						<g>
							<path style="fill:#A88179;" d="M224.846,450.693c5.227,0.352,10.962,5.348,10.898,10.607
								c-2.481-2.859-4.759-5.845-7.884-8.082C227.571,452.756,224.093,451.004,224.846,450.693z"/>
						</g>
						<g>
							<path style="fill:#A88179;" d="M196.31,454.838c4.523-3.801,11.325-5.005,16.842-2.841c0.157,0.063,0.122,0.313-0.048,0.327
								c-4.248,0.415-8.342,0.795-12.476,1.797C200.063,454.074,195.992,455.648,196.31,454.838z"/>
						</g>
						<g>
							<path style="fill:#A88179;" d="M198.103,431.827c7.563,1.768,17.45,7.162,17.4,15.816
								c-2.627-5.399-7.154-9.367-12.365-12.331C202.583,434.775,197.234,432.237,198.103,431.827z"/>
						</g>
						<g>
							<path style="fill:#A88179;" d="M220.415,429.807c-0.082,3.523-0.466,7.729-0.608,11.25c-0.085,9.249-2.381-0.893-1.928-3.841
								C217.813,435.996,219.231,429.391,220.415,429.807z"/>
						</g>
						<g>
							<path style="fill:#A88179;" d="M243.507,434.811c-7.287,2.081-13.167,6.95-17.982,12.403
								c1.319-5.685,6.734-10.157,12.184-11.949C238.465,434.956,243.861,433.815,243.507,434.811z"/>
						</g>
						<g>
							<path style="fill:#A88179;" d="M212.428,466.375c-1.13-4.946,1.695-10.705,6.373-12.725c0.151-0.064,0.302,0.123,0.207,0.257
								c-2.004,2.94-3.795,5.795-5.046,9.109C213.608,463.415,212.954,466.965,212.428,466.375z"/>
						</g>
					</g>
					<path style="fill:#FFFFFF;" d="M229.574,448.281c-2.666,6.034-9.755,8.747-15.856,6.239c-3.876-1.593-7.692-3.823-7.077-6.279
						c1.202-4.802,7.803,1.67,7.803,1.67s-3.533-6.27-0.998-8.471c2.535-2.2,4.734,3.736,4.734,3.736s-1.732-7.804,1.67-7.803
						c3.401,0.001,2.931,9.805,2.931,9.805s2.87-6.935,6.271-4.667C230.612,443.552,230.685,445.768,229.574,448.281z"/>
				</g>
				<g>
					<path style="fill:#66312B;" d="M282.216,419.534c0,0,0.389,15.624,7.828,20.381c7.438,4.757,18.184,4.807,18.184,4.807
						S309.606,424.247,282.216,419.534z"/>
					<g>
						<path style="fill:#93564C;" d="M282.313,419.401c1.336,0.749,2.609,1.586,3.871,2.44c1.26,0.857,2.489,1.756,3.699,2.682
							c2.415,1.857,4.741,3.83,6.973,5.91c2.221,2.092,4.342,4.298,6.311,6.639c1.943,2.362,3.751,4.856,5.195,7.557
							c0.043,0.081,0.013,0.182-0.068,0.225c-0.068,0.037-0.151,0.021-0.201-0.034l-0.002-0.002
							c-2.058-2.244-4.117-4.42-6.227-6.559c-2.129-2.119-4.289-4.202-6.467-6.273c-2.193-2.056-4.404-4.097-6.627-6.136
							c-2.219-2.043-4.45-4.083-6.653-6.181l-0.001-0.001c-0.066-0.063-0.069-0.168-0.006-0.235
							C282.165,419.375,282.249,419.365,282.313,419.401z"/>
					</g>
				</g>
				<g>
					<path style="fill:#66312B;" d="M372.869,366.809c0,0-11.458,10.629-10.104,19.354c1.354,8.725,8.426,16.815,8.426,16.815
						S387.457,390.465,372.869,366.809z"/>
					<g>
						<path style="fill:#93564C;" d="M373.033,366.794c0.322,1.498,0.537,3.005,0.732,4.517c0.191,1.512,0.33,3.029,0.436,4.548
							c0.206,3.039,0.265,6.089,0.182,9.139c-0.1,3.049-0.35,6.099-0.803,9.125c-0.486,3.02-1.159,6.026-2.229,8.896
							c-0.032,0.086-0.128,0.13-0.214,0.098c-0.072-0.027-0.115-0.099-0.107-0.173l0-0.003c0.321-3.028,0.591-6.012,0.798-9.009
							c0.18-2.999,0.313-5.996,0.424-9c0.091-3.005,0.158-6.013,0.217-9.029c0.064-3.016,0.117-6.039,0.233-9.078v-0.001
							c0.004-0.092,0.081-0.163,0.173-0.16C372.955,366.665,373.018,366.721,373.033,366.794z"/>
					</g>
				</g>
				<g>
					<path style="fill:#896059;" d="M289.63,438.033c0,0,2.605-9.792-7.06-8.899c-9.09,0.84-5.148,9.969-5.148,9.969
						s-8.926,0.635-5.229,9.02c3.233,7.335,11.167,0.626,11.167,0.626s7.286,4.862,11.055,0.215
						C298.186,444.316,294.22,438.02,289.63,438.033z"/>
					<path style="fill:#FFFFFF;" d="M286.694,442.255c-0.09,1.598-1.457,2.82-3.055,2.731c-1.598-0.09-2.82-1.457-2.731-3.055
						c0.09-1.598,1.457-2.82,3.055-2.731C285.561,439.289,286.784,440.657,286.694,442.255z"/>
				</g>
				<g>
					<path style="fill:#D1B3AC;" d="M290.675,459.575c0,0,8.213-5.934,0.164-11.358c-7.571-5.101-10.294,4.463-10.294,4.463
						s-7.313-5.156-9.757,3.676c-2.137,7.725,8.251,7.551,8.251,7.551s2.565,8.375,8.425,7.161
						C293.325,469.854,294.237,462.469,290.675,459.575z"/>
					<path style="fill:#FFFFFF;" d="M285.73,460.986c-1.08,1.18-2.913,1.262-4.093,0.181c-1.18-1.08-1.262-2.913-0.182-4.093
						c1.08-1.18,2.913-1.262,4.093-0.181C286.729,457.973,286.81,459.806,285.73,460.986z"/>
				</g>
				<g>
					<path style="fill:#D1B3AC;" d="M333.404,440.936c0,0-2.768-18.949,8.974-21.765c11.742-2.816,11.373,10.269,11.373,10.269
						s9.306-6.609,14.607,1.719c5.301,8.327-4.433,14.193-4.433,14.193s6.914-0.03,5.516,8.699
						c-1.411,8.81-20.854,6.831-26.379,4.333C327.134,451.184,333.404,440.936,333.404,440.936z"/>
					<g>
						<path style="fill:#A88179;" d="M348.916,434.793c-2.37,3.056-4.021,5.987-5.618,9.505c-0.077,0.168-0.337,0.165-0.411-0.003
							c-0.939-2.024-0.484-4.429,0.62-6.289c1.117-1.849,2.999-3.392,5.211-3.576C348.906,434.414,349.033,434.647,348.916,434.793z
							"/>
					</g>
					<g>
						<path style="fill:#A88179;" d="M344.362,445.012c0.303-4.333,6.374-6.888,9.632-3.961c0.135,0.121,0.067,0.361-0.11,0.395
							c-3.49,0.622-6.276,1.694-9.161,3.766C344.574,445.323,344.347,445.196,344.362,445.012z"/>
					</g>
					<g>
						<path style="fill:#A88179;" d="M344.865,446.212c3.138-2.991,8.128,0.726,8.299,4.461c0.022,0.177-0.174,0.317-0.335,0.241
							c-2.858-1.405-4.544-3.829-7.811-4.319C344.839,446.578,344.748,446.349,344.865,446.212z"/>
					</g>
				</g>
				<g>
					<path style="fill:#A88179;" d="M294.987,454.443c0,0-7.725-8.243-2.273-13.956c5.452-5.713,13.923-0.208,13.923-0.208
						s-2.51-11.006,4.109-15.062c6.618-4.057,10.378,4.771,10.378,4.771s2.173-5.079,8.814-2.326
						c7.664,3.177,8.077,15.776,4.615,16.92c0,0,10.767,2.704,8.526,10.92c-2.241,8.216-12.306,4.864-12.306,4.864
						s2.258,6.798-4.544,11.365c-6.801,4.567-12.467-3.527-12.467-3.527s-1.768,10.171-11.986,5.935
						C291.557,469.904,292.349,457.218,294.987,454.443z"/>
					<g>
						<g>
							<path style="fill:#896059;" d="M314.738,455.607c-2.997,2.831-3.888,8.911-1.114,12.271c0.022-3.08-0.145-6.141,0.593-9.141
								C314.153,458.295,315.358,455.432,314.738,455.607z"/>
						</g>
						<g>
							<path style="fill:#896059;" d="M334.256,444.061c-4.729-0.197-9.493,2.415-11.724,6.56c-0.063,0.119,0.089,0.263,0.199,0.186
								c2.8-1.85,5.489-3.643,8.525-5.057C331.575,445.439,334.871,444.425,334.256,444.061z"/>
						</g>
						<g>
							<path style="fill:#896059;" d="M321.197,430.114c-3.682,4.909-6.892,13.315-2.361,18.871
								c-1.21-4.791-0.519-9.606,1.11-14.114C320.005,434.247,321.939,429.945,321.197,430.114z"/>
						</g>
						<g>
							<path style="fill:#896059;" d="M306.571,439.93c1.882,2.231,4.303,4.753,6.221,6.952c4.862,5.923,0.984-1.762-0.824-3.438
								C311.373,442.624,307.075,439.071,306.571,439.93z"/>
						</g>
						<g>
							<path style="fill:#896059;" d="M295.124,454.663c5.516-2.289,11.625-2.079,17.391-0.961
								c-3.759-3.009-9.38-3.195-13.628-1.635C298.267,452.244,294.391,454.198,295.124,454.663z"/>
						</g>
						<g>
							<path style="fill:#896059;" d="M330.449,459.533c-1.885-3.753-6.599-6.059-10.495-5.031c-0.125,0.034-0.12,0.23,0.007,0.269
								c2.749,0.898,5.323,1.847,7.807,3.36C328.192,458.212,330.436,460.175,330.449,459.533z"/>
						</g>
					</g>
					<path style="fill:#FFFFFF;" d="M310.606,456.408c4.76,2.563,10.484,0.78,12.892-3.878c1.53-2.959,2.691-6.299,1.04-7.576
						c-3.229-2.498-3.879,4.965-3.879,4.965s-1.112-5.805-3.798-5.96c-2.687-0.156-0.937,4.769-0.937,4.769s-3.005-5.896-5.074-4.2
						c-2.069,1.696,3.316,7.784,3.316,7.784s-5.353-3.043-6.242,0.115C307.516,453.874,308.624,455.34,310.606,456.408z"/>
				</g>
				<g>
					<path style="fill:#A88179;" d="M158.463,455.24c0,0-4.648,18.577-16.579,16.715c-11.931-1.862-6.612-13.823-6.612-13.823
						s-11.12,2.572-12.855-7.146c-1.735-9.718,9.498-11.44,9.498-11.44s-6.406-2.602-1.792-10.143
						c4.657-7.611,21.884,1.615,26.045,6.026C168.16,448.148,158.463,455.24,158.463,455.24z"/>
					<g>
						<path style="fill:#D1B3AC;" d="M141.78,455.021c3.354-1.925,5.996-4.007,8.811-6.654c0.135-0.126,0.374-0.025,0.379,0.159
							c0.098,2.229-1.237,4.28-2.965,5.581c-1.736,1.286-4.063,1.996-6.18,1.324C141.645,455.376,141.617,455.112,141.78,455.021z"
							/>
					</g>
					<g>
						<path style="fill:#D1B3AC;" d="M149.879,447.302c-1.928,3.892-8.515,3.946-10.414-0.001c-0.079-0.163,0.075-0.36,0.252-0.323
							c3.464,0.752,6.448,0.821,9.905,0.002C149.801,446.935,149.962,447.138,149.879,447.302z"/>
					</g>
					<g>
						<path style="fill:#D1B3AC;" d="M149.87,446.001c-4.039,1.573-7.241-3.763-5.979-7.282c0.047-0.172,0.282-0.227,0.401-0.095
							c2.109,2.387,2.746,5.27,5.581,6.965C150.033,445.673,150.031,445.92,149.87,446.001z"/>
					</g>
				</g>
				<g>
					<path style="fill:#896059;" d="M171.276,435.382c0,0,2.606-9.792-7.06-8.899c-9.09,0.84-5.148,9.969-5.148,9.969
						s-8.926,0.635-5.229,9.02c3.233,7.335,11.167,0.626,11.167,0.626s7.286,4.862,11.056,0.215
						C179.832,441.665,175.866,435.369,171.276,435.382z"/>
					<path style="fill:#FFFFFF;" d="M168.34,439.604c-0.089,1.598-1.457,2.82-3.055,2.731c-1.598-0.089-2.82-1.457-2.731-3.055
						c0.089-1.598,1.457-2.82,3.055-2.731C167.207,436.638,168.43,438.006,168.34,439.604z"/>
				</g>
				<g>
					<path style="fill:#A88179;" d="M186.273,445.94c0,0,2.605-9.792-7.06-8.899c-9.09,0.84-5.148,9.969-5.148,9.969
						s-8.926,0.635-5.229,9.02c3.233,7.335,11.167,0.626,11.167,0.626s7.286,4.862,11.055,0.215
						C194.829,452.223,190.863,445.927,186.273,445.94z"/>
					<path style="fill:#FFFFFF;" d="M183.337,450.162c-0.09,1.598-1.457,2.82-3.055,2.731c-1.598-0.09-2.82-1.457-2.731-3.055
						c0.09-1.598,1.457-2.82,3.055-2.731C182.204,447.197,183.427,448.564,183.337,450.162z"/>
				</g>
				<g>
					<path style="fill:#D1B3AC;" d="M172.684,453.614c0,0,2.605-9.792-7.06-8.899c-9.09,0.84-5.148,9.969-5.148,9.969
						s-8.926,0.635-5.229,9.02c3.233,7.335,11.167,0.626,11.167,0.626s7.286,4.862,11.055,0.215
						C181.24,459.897,177.273,453.601,172.684,453.614z"/>
					<path style="fill:#FFFFFF;" d="M169.748,457.836c-0.09,1.598-1.457,2.82-3.055,2.731c-1.598-0.09-2.82-1.457-2.731-3.055
						c0.089-1.598,1.457-2.82,3.055-2.731C168.615,454.871,169.837,456.238,169.748,457.836z"/>
				</g>
			</g>
		</g>
	</g>
</g>
</svg>
