<?xml version="1.0" encoding="utf-8"?>
<!-- Generator: Adobe Illustrator 27.5.0, SVG Export Plug-In . SVG Version: 6.00 Build 0)  -->
<svg version="1.1" id="Capa_1" xmlns="http://www.w3.org/2000/svg" xmlns:xlink="http://www.w3.org/1999/xlink" x="0px" y="0px"
	 viewBox="0 0 2122 2122" style="enable-background:new 0 0 2122 2122;" xml:space="preserve">
<g>
	<g>
		<g>
			<path style="fill:#F0A931;" d="M1060.661,171.336c-491.159,0-889.322,398.164-889.322,889.323s398.163,889.323,889.322,889.323
				s889.323-398.164,889.323-889.323S1551.821,171.336,1060.661,171.336z"/>
		</g>
		<path style="fill:#F7CB40;" d="M1060.661,171.336c-491.159,0-889.322,398.164-889.322,889.323s398.163,889.323,889.322,889.323
			s889.323-398.164,889.323-889.323S1551.821,171.336,1060.661,171.336z M1060.528,337.049c0.044,0,0.089-0.001,0.133-0.001h0
			C1060.617,337.048,1060.572,337.049,1060.528,337.049z"/>
		<path style="fill:#DB8D24;" d="M1784.036,1041.982c-1.258-49.652-7.517-98.061-18.293-144.742
			c-1.347-5.835-2.765-11.643-4.252-17.423c-6.215-24.158-13.676-47.814-22.255-70.927c-9.894-26.657-21.286-52.587-34.126-77.656
			c-2.664-5.201-5.389-10.364-8.173-15.491c-29.883-55.011-66.722-105.685-109.288-150.909
			c-37.193-39.516-78.763-74.86-123.965-105.23c-18.768-12.609-38.148-24.379-58.105-35.221c-5.127-2.785-10.291-5.509-15.491-8.173
			c-98.808-50.609-210.782-79.163-329.425-79.163c-0.044,0-0.089,0.001-0.134,0.001c-3.888,0.001-7.756,0.086-11.629,0.148
			c-4.911,0.078-9.808,0.207-14.695,0.383c-0.78,0.028-1.56,0.058-2.339,0.088c-4.307,0.169-8.609,0.36-12.896,0.603
			c-2.038,0.116-4.069,0.255-6.102,0.387c-3.235,0.212-6.473,0.407-9.695,0.66c-5.514,0.434-11.017,0.909-16.496,1.465
			c-24.326,2.471-48.295,6.146-71.847,10.965c-23.553,4.82-46.688,10.784-69.347,17.831c-11.33,3.524-22.539,7.319-33.622,11.377
			c-27.707,10.145-54.621,21.936-80.623,35.254c-5.201,2.664-10.364,5.389-15.491,8.173c-10.253,5.57-20.356,11.38-30.302,17.424
			c-12.883,7.827-25.472,16.087-37.812,24.68c-6.713,4.675-13.373,9.421-19.918,14.315
			c-83.582,62.507-153.199,142.661-203.327,234.939c-2.785,5.127-5.509,10.29-8.173,15.491c-9.079,17.726-17.402,35.9-25.024,54.436
			c-2.708,6.588-5.323,13.221-7.841,19.904c-9.106,24.166-17.002,48.925-23.516,74.244c-1.487,5.78-2.905,11.588-4.252,17.423
			c-10.776,46.681-17.036,95.09-18.293,144.742c-0.157,6.206-0.236,12.432-0.236,18.677c0,5.25,0.073,10.485,0.199,15.706
			c0.119,4.966,0.284,9.921,0.49,14.866c0.016-0.366,0.043-0.728,0.059-1.095c2.723,67.832,14.674,133.28,34.821,195.055
			c5.914,18.136,12.51,35.961,19.786,53.434c49.538,118.954,129.903,221.831,231.128,298.683
			c12.505,9.495,25.331,18.585,38.455,27.265c32.057,21.205,65.874,39.963,101.231,55.927c14.669,6.623,29.614,12.74,44.784,18.394
			c73.606,27.432,152.867,43.241,235.571,45.158c5.681,0.132,11.373,0.216,17.085,0.216c13.943,0,27.783-0.435,41.532-1.213
			c370.227-20.956,665.964-320.21,681.386-691.889c0.001,0.021,0.004,0.043,0.005,0.065c0.206-4.945,0.371-9.9,0.489-14.866
			c0.125-5.221,0.199-10.455,0.199-15.706C1784.272,1054.414,1784.193,1048.189,1784.036,1041.982z"/>
		<path style="fill:#EA9630;" d="M1549.534,1155.981l194.474-272.61c-32.443-93.006-83.343-177.347-148.298-248.667l-94.206,132.057
			c-1.722-4.569-3.745-9.111-6.197-13.602c-5.614-10.281-12.263-19.153-19.635-26.756c-34.23-35.298-84.459-42.533-123.629-29.133
			l121.227-169.934c-116.373-80.936-257.629-128.572-410.003-129.111l-164.819,231.04c-11.328-10.488-23.46-19.265-36.075-26
			c-33.78-18.034-71.015-21.302-105.57-2.434c-48.986,26.749-66.688,76.522-61.22,120.027c-1.877,15.026-0.974,30.099,2.47,44.122
			c-52.21-11.412-119.883,16.119-139.006,85.079c-4.118,14.85-4.776,29.315-2.624,43.17c-7.415,48.691,21.119,92.457,66.885,121.722
			l-230.902,323.674c49.538,118.954,129.903,221.831,231.128,298.683c12.505,9.495,25.331,18.585,38.455,27.265l130.122-182.403
			c10.113,36.555,37.574,70.379,83.131,83.012c19.89,5.516,39.108,4.905,57.053-0.518l-124.292,174.23
			c73.606,27.432,152.867,43.241,235.571,45.158c5.681,0.132,11.373,0.216,17.085,0.216c13.943,0,27.783-0.435,41.532-1.213
			l182.105-255.272c26.51,7.81,54.129,6.219,80.221-8.028c48.986-26.749,66.688-76.522,61.219-120.028
			c1.877-15.025,0.975-30.098-2.47-44.121c52.209,11.413,119.883-16.118,139.006-85.078c4.118-14.85,4.776-29.317,2.624-43.171
			C1568.8,1201.745,1562.815,1177.481,1549.534,1155.981z"/>
		<path style="fill:#EFB032;" d="M1564.9,1227.357c3.9-25.612-2.084-49.876-15.366-71.376
			c-7.734-12.519-17.955-24.078-30.046-34.451c-34.251-29.383-83.769-49.078-136.365-52.739
			c-26.506-1.845-58.125-5.576-89.951-9.995c-16.644-2.311-33.34-4.807-49.396-7.326c-11.058-1.734-21.797-3.475-32.014-5.171
			c39.302-16.149,84.913-34.098,124.153-47.419c8.268-2.807,16.254-5.411,23.832-7.745
			c89.388-27.533,157.964-101.941,147.069-173.478c2.509-16.953,1.006-34.135-5.312-50.897c-1.722-4.569-3.745-9.111-6.197-13.602
			c-5.614-10.281-12.263-19.153-19.635-26.756c-34.23-35.298-84.459-42.533-123.629-29.133c-6.517,2.23-12.716,5.036-18.494,8.374
			c0.242-6.536-0.042-13.176-0.912-19.825c1.589-11.848,1.307-24.271-0.937-36.601c-7.376-40.529-35.6-79.944-85.62-93.815
			c-88.318-24.492-163.628,70.913-171.164,179.153c-4.444,63.833-19.798,157.263-29.429,211.887
			c-20.973-48.714-61.097-144.53-81.279-210.051c-13.096-42.516-36.806-80.32-65.758-107.126c-11.328-10.488-23.46-19.265-36.075-26
			c-33.78-18.034-71.015-21.302-105.57-2.434c-48.986,26.749-66.688,76.522-61.22,120.027c-1.877,15.026-0.974,30.099,2.47,44.122
			c-52.21-11.412-119.883,16.119-139.006,85.079c-4.118,14.85-4.776,29.315-2.624,43.17c-7.415,48.691,21.119,92.457,66.885,121.722
			c32.038,20.487,72.458,33.891,114.892,36.845c49.916,3.475,117.941,13.624,171.36,22.491
			c-47.579,19.551-104.44,41.751-147.985,55.163c-89.387,27.534-157.964,101.942-147.069,173.479
			c-3.193,21.575,0.059,43.53,11.509,64.499c36.017,65.96,113.772,75.23,161.758,47.515c-0.242,6.536,0.041,13.177,0.911,19.825
			c-2.055,15.323-0.943,31.612,3.426,47.403c10.113,36.555,37.574,70.379,83.131,83.012c19.89,5.516,39.108,4.905,57.053-0.518
			c56.219-16.99,99.803-81.627,111.557-156.379c1.153-7.337,2.032-14.76,2.553-22.255c4.443-63.816,19.797-157.257,29.429-211.889
			c12.432,28.875,31.582,74.305,49.33,120.162c12.193,31.504,23.731,63.208,31.95,89.89c21.58,70.059,71.964,127.32,127.183,143.588
			c26.51,7.81,54.129,6.219,80.221-8.028c48.986-26.749,66.688-76.522,61.219-120.028c1.877-15.025,0.975-30.098-2.47-44.121
			c52.209,11.413,119.883-16.118,139.006-85.078C1566.393,1255.678,1567.051,1241.211,1564.9,1227.357z"/>
		<g>
			<path style="fill:#EDCA35;" d="M1364.52,1489.183c-34.555,18.868-71.79,15.601-105.57-2.434l260.538-365.218
				c-34.251-29.383-83.769-49.078-136.365-52.739c-26.506-1.845-58.125-5.576-89.951-9.995c-16.644-2.311-33.34-4.807-49.396-7.326
				l-130.281,182.625c-14.072-35.152-27.928-67.925-37.659-90.526c-8.157,46.268-20.394,120.313-26.656,180.682l-152.62,213.941
				c-7.003-0.46-14.11-1.583-21.316-3.581c-52.497-14.558-80.981-57.253-86.557-99.843c-2.055,15.323-0.943,31.612,3.426,47.403
				c10.113,36.555,37.574,70.379,83.131,83.012c19.89,5.516,39.108,4.905,57.053-0.518c56.219-16.99,99.803-81.627,111.557-156.379
				c1.153-7.337,2.032-14.76,2.553-22.255c4.443-63.816,19.797-157.257,29.429-211.889c12.432,28.875,31.582,74.305,49.33,120.162
				c12.193,31.504,23.731,63.208,31.95,89.89c21.58,70.059,71.964,127.32,127.183,143.588c26.51,7.81,54.129,6.219,80.221-8.028
				c48.986-26.749,66.688-76.522,61.219-120.028C1421.422,1434.282,1402.267,1468.571,1364.52,1489.183z"/>
			<path style="fill:#EDCA35;" d="M1160.093,1037.382c14.104,2.526,31.894,5.635,51.669,8.917
				c39.302-16.149,84.913-34.098,124.153-47.419c8.268-2.807,16.254-5.411,23.832-7.745
				c89.388-27.533,157.964-101.941,147.069-173.478c2.509-16.953,1.006-34.135-5.312-50.897c-1.722-4.569-3.745-9.111-6.197-13.602
				c-5.614-10.281-12.263-19.153-19.635-26.756l-183.869,257.744C1244.083,1002.038,1194.022,1022.884,1160.093,1037.382z"/>
			<path style="fill:#EDCA35;" d="M787.935,1411.458l543.765-762.239c-7.376-40.529-35.6-79.944-85.62-93.815
				c-88.318-24.492-163.628,70.913-171.164,179.153c-4.444,63.833-19.798,157.263-29.429,211.887
				c-20.973-48.714-61.097-144.53-81.279-210.051c-13.096-42.516-36.806-80.32-65.758-107.126
				c-11.328-10.488-23.46-19.265-36.075-26L601.835,968.484c-24.384-20.919-40.984-46.751-45.412-75.255
				c-7.415,48.691,21.119,92.457,66.885,121.722c32.038,20.487,72.458,33.891,114.892,36.845
				c49.916,3.475,117.941,13.624,171.36,22.491c-47.579,19.551-104.44,41.751-147.985,55.163
				c-89.387,27.534-157.964,101.942-147.069,173.479c-3.193,21.575,0.059,43.53,11.509,64.499
				c36.017,65.96,113.772,75.23,161.758,47.515C787.818,1413.779,787.856,1412.614,787.935,1411.458z"/>
		</g>
		<path style="fill:#DB8D24;" d="M1293.172,1058.797c-16.644-2.311-33.34-4.807-49.396-7.326
			c-11.058-1.734-21.797-3.475-32.014-5.171c39.302-16.149,84.913-34.098,124.153-47.419L1293.172,1058.797z"/>
		<path style="fill:#DB8D24;" d="M1043.854,1408.286c1.153-7.337,2.032-14.76,2.553-22.255
			c4.443-63.816,19.797-157.257,29.429-211.889c12.432,28.875,31.582,74.305,49.33,120.162L1043.854,1408.286z"/>
		<path style="fill:#B26916;" d="M1463.683,459.605c-18.768-12.609-38.148-24.379-58.105-35.221
			c-5.127-2.785-10.291-5.509-15.491-8.173c-98.808-50.609-210.782-79.163-329.425-79.163c-0.044,0-0.089,0.001-0.134,0.001
			c-3.888,0.001-7.756,0.086-11.629,0.148c-4.911,0.078-9.808,0.207-14.695,0.383c-0.78,0.028-1.56,0.058-2.339,0.088
			c-4.307,0.169-8.609,0.36-12.896,0.603c-2.038,0.116-4.069,0.255-6.102,0.387c-3.235,0.212-6.473,0.407-9.695,0.66
			c-5.514,0.434-11.017,0.909-16.496,1.465c-24.326,2.471-48.295,6.146-71.847,10.965c-23.553,4.82-46.688,10.784-69.347,17.831
			c-11.33,3.524-22.539,7.319-33.622,11.377c-27.707,10.145-54.621,21.936-80.623,35.254c-5.201,2.664-10.364,5.389-15.491,8.173
			c-10.253,5.57-20.356,11.38-30.302,17.424c-12.883,7.827-25.472,16.087-37.812,24.68c-6.713,4.675-13.373,9.421-19.918,14.315
			c-83.582,62.507-153.199,142.661-203.327,234.939c-2.785,5.127-5.509,10.29-8.173,15.491c-9.079,17.726-17.402,35.9-25.024,54.436
			c-2.708,6.588-5.323,13.221-7.841,19.904c-9.106,24.166-17.002,48.925-23.516,74.244c-1.487,5.78-2.905,11.588-4.252,17.423
			c-10.776,46.681-17.036,95.09-18.293,144.742c-0.157,6.206-0.236,12.432-0.236,18.677c0,5.25,0.073,10.485,0.199,15.706
			c0.119,4.966,0.284,9.921,0.49,14.866c0.016-0.366,0.043-0.728,0.059-1.095c16.585-384.938,333.841-691.943,722.863-691.943
			c0.871,0,1.735,0.029,2.605,0.032c152.374,0.539,293.63,48.175,410.003,129.111c44.757,31.129,85.833,67.173,122.44,107.367
			c64.955,71.32,115.855,155.662,148.298,248.667c22.844,65.487,36.55,135.261,39.572,207.795c0.001,0.021,0.004,0.043,0.005,0.065
			c0.206-4.945,0.371-9.9,0.489-14.866c0.125-5.221,0.199-10.455,0.199-15.706c0-6.245-0.079-12.471-0.236-18.677
			c-1.258-49.652-7.517-98.061-18.293-144.742c-1.347-5.835-2.765-11.643-4.252-17.423c-6.215-24.158-13.676-47.814-22.255-70.927
			c-9.894-26.657-21.286-52.587-34.126-77.656c-2.664-5.201-5.389-10.364-8.173-15.491
			c-29.883-55.011-66.722-105.685-109.288-150.909C1550.454,525.318,1508.884,489.974,1463.683,459.605z"/>
		<path style="fill:#F0A931;" d="M1543.237,348.087c44.973,30.517,86.908,65.171,125.249,103.429l-80.838,113.318
			c-37.193-39.516-78.763-74.86-123.965-105.23L1543.237,348.087z"/>
		<path style="fill:#F0A931;" d="M277.731,1418.205c-49.812-108.896-77.606-229.969-77.606-357.546
			c0-475.261,385.275-860.537,860.536-860.537c28.058,0,55.789,1.39,83.16,4.015l-94.922,133.061
			c-4.911,0.078-9.808,0.207-14.695,0.383c-0.78,0.028-1.56,0.058-2.339,0.088c-4.307,0.169-8.609,0.36-12.896,0.603
			c-2.038,0.116-4.069,0.255-6.102,0.387c-3.235,0.212-6.473,0.407-9.695,0.66c-5.514,0.434-11.017,0.909-16.496,1.465
			c-24.326,2.471-48.295,6.146-71.847,10.965c-23.553,4.82-46.688,10.784-69.347,17.831c-11.33,3.524-22.539,7.319-33.622,11.377
			c-27.707,10.145-54.621,21.936-80.623,35.254c-5.201,2.664-10.364,5.389-15.491,8.173c-10.253,5.57-20.356,11.38-30.302,17.424
			c-12.883,7.827-25.472,16.087-37.812,24.68c-6.713,4.675-13.373,9.421-19.918,14.315
			c-83.582,62.507-153.199,142.661-203.327,234.939c-2.785,5.127-5.509,10.29-8.173,15.491c-9.079,17.726-17.402,35.9-25.024,54.436
			c-2.708,6.588-5.323,13.221-7.841,19.904c-9.106,24.166-17.002,48.925-23.516,74.244c-1.487,5.78-2.905,11.588-4.252,17.423
			c-10.776,46.681-17.036,95.09-18.293,144.742c-0.157,6.206-0.236,12.432-0.236,18.677c0,5.25,0.073,10.485,0.199,15.706
			c0.119,4.966,0.284,9.921,0.49,14.866c0.016-0.366,0.043-0.728,0.059-1.095c2.723,67.832,14.674,133.28,34.821,195.055
			L277.731,1418.205z"/>
		<path style="fill:#F0A931;" d="M682.417,1833.771c-48.938-23.989-95.275-52.462-138.448-84.928l79.566-111.533
			c12.505,9.495,25.331,18.585,38.455,27.265c32.057,21.205,65.874,39.963,101.231,55.927L682.417,1833.771z"/>
		<path style="fill:#F0A931;" d="M1060.661,1921.196c-37.252,0-73.949-2.372-109.952-6.964l92.867-130.179
			c5.681,0.132,11.373,0.216,17.085,0.216c13.943,0,27.783-0.435,41.532-1.213c370.227-20.956,665.964-320.21,681.386-691.889
			c0.001,0.021,0.004,0.043,0.005,0.065c0.206-4.945,0.371-9.9,0.489-14.866c0.125-5.221,0.199-10.455,0.199-15.706
			c0-6.245-0.079-12.471-0.236-18.677c-1.258-49.652-7.517-98.061-18.293-144.742c-1.347-5.835-2.765-11.643-4.252-17.423
			c-6.215-24.158-13.676-47.814-22.255-70.927l92.767-130.039c57.063,115.058,89.196,244.67,89.196,381.808
			C1921.198,1535.92,1535.923,1921.196,1060.661,1921.196z"/>
	</g>
	<path style="fill:#B26916;" d="M695.583,720.859c-1.877,15.026-0.974,30.099,2.47,44.122c5.467,1.195,10.767,2.813,15.821,4.859
		C704.129,756.016,697.861,738.977,695.583,720.859z"/>
	<path style="fill:#B26916;" d="M1407.449,1320.175c7.273,10.318,12.625,22.423,15.821,35.432
		c52.209,11.413,119.883-16.118,139.006-85.078c4.118-14.85,4.776-29.317,2.624-43.171c-0.635,4.169-1.45,8.363-2.624,12.597
		C1541.15,1316.136,1460.771,1341.764,1407.449,1320.175z"/>
	<path style="fill:#B26916;" d="M1333.548,705.644c0.242-6.536-0.042-13.176-0.912-19.825c-1.143,8.521-3.236,16.75-6.338,24.411
		C1328.62,708.593,1331.056,707.083,1333.548,705.644z"/>
	<path style="fill:#B26916;" d="M1364.52,1519.755c48.986-26.749,66.688-76.522,61.219-120.028
		c-4.317,34.554-23.472,68.843-61.219,89.455c-34.555,18.868-71.79,15.601-105.57-2.434
		c-44.857-23.95-83.614-73.976-101.834-133.126c-10.818-35.121-27.363-78.917-43.621-119.527
		c-14.072-35.152-27.928-67.925-37.659-90.526c-8.157,46.268-20.394,120.313-26.656,180.682
		c-1.133,10.915-2.092,21.435-2.773,31.207c-6.92,99.408-71.019,187.913-149.848,182.734c-7.003-0.46-14.11-1.583-21.316-3.581
		c-52.497-14.558-80.981-57.253-86.557-99.843c-2.055,15.323-0.943,31.612,3.426,47.403c10.113,36.555,37.574,70.379,83.131,83.012
		c19.89,5.516,39.108,4.905,57.053-0.518c56.219-16.99,99.803-81.627,111.557-156.379c1.153-7.337,2.032-14.76,2.553-22.255
		c4.443-63.816,19.797-157.257,29.429-211.889c12.432,28.875,31.582,74.305,49.33,120.162c12.193,31.504,23.731,63.208,31.95,89.89
		c21.58,70.059,71.964,127.32,127.183,143.588C1310.809,1535.593,1338.427,1534.003,1364.52,1519.755z"/>
	<path style="fill:#B26916;" d="M1359.747,960.563c-20.474,6.307-43.917,14.577-67.945,23.585
		c-47.719,17.89-97.78,38.736-131.709,53.235c14.104,2.526,31.894,5.635,51.669,8.917c39.302-16.149,84.913-34.098,124.153-47.419
		c8.268-2.807,16.254-5.411,23.832-7.745c89.388-27.533,157.964-101.941,147.069-173.478
		C1497.759,878.849,1436.411,936.949,1359.747,960.563z"/>
	<path style="fill:#B26916;" d="M795.024,1379.784c-47.02,33.144-131.12,26.457-169.008-42.929
		c-6.06-11.098-9.766-22.477-11.509-33.926c-3.193,21.575,0.059,43.53,11.509,64.499c36.017,65.96,113.772,75.23,161.758,47.515
		c0.043-1.164,0.082-2.329,0.16-3.486C788.688,1400.343,791.048,1389.604,795.024,1379.784z"/>
	<path style="fill:#B26916;" d="M738.201,1021.224c-52.596-3.662-102.115-23.356-136.366-52.74
		c-24.384-20.919-40.984-46.751-45.412-75.255c-7.415,48.691,21.119,92.457,66.885,121.722
		c32.038,20.487,72.458,33.891,114.892,36.845c49.916,3.475,117.941,13.624,171.36,22.491c19.23-7.901,36.987-15.382,51.668-21.655
		C909.024,1043.28,806.595,1025.985,738.201,1021.224z"/>
</g>
</svg>
